<svg width="580" height="580" fill="none" xmlns="http://www.w3.org/2000/svg"><g clip-path="url(#a)"><path d="M0 29a29 29 0 0 0 58 0H0z" fill="#C72462"/><path d="M0 0a29 29 0 0 0 58 0H0z" fill="#C72462"/><path d="M86.964 29.036s.957 13.908-7.031 21.896c-7.99 7.989-21.897 7.032-21.897 7.032s-.958-13.909 7.031-21.897c7.99-7.988 21.897-7.031 21.897-7.031zM115.964.036s.957 13.908-7.031 21.896c-7.989 7.989-21.897 7.032-21.897 7.032s-.958-13.909 7.031-21.897C102.056-.92 115.964.036 115.964.036z" fill="#FF97BA"/><path d="M86.964 28.965s-13.909.957-21.897-7.032C57.08 13.945 58.036.037 58.036.037s13.908-.958 21.897 7.031c7.988 7.989 7.03 21.897 7.03 21.897zM115.964 57.964s-13.909.958-21.897-7.031c-7.988-7.989-7.031-21.897-7.031-21.897s13.908-.957 21.896 7.032c7.989 7.989 7.032 21.896 7.032 21.896z" fill="#FF97BA"/><path d="M210.024 29a7.015 7.015 0 0 1-11.98 4.96 7.014 7.014 0 0 1-1.522-7.647 7.022 7.022 0 0 1 6.481-4.334A7.03 7.03 0 0 1 210.024 29zm-11.719 0a4.7 4.7 0 0 0 5.615 4.608 4.698 4.698 0 0 0-.917-9.306A4.704 4.704 0 0 0 198.305 29z" fill="#9562B3"/><path d="M214.422 29A11.414 11.414 0 0 1 200.778 40.2a11.418 11.418 0 0 1 2.227-22.616A11.432 11.432 0 0 1 214.422 29zm-20.514 0a9.095 9.095 0 0 0 5.615 8.405 9.1 9.1 0 0 0 12.405-6.63 9.094 9.094 0 0 0-3.869-9.338 9.097 9.097 0 0 0-5.054-1.534A9.107 9.107 0 0 0 193.908 29z" fill="#9562B3"/><path d="M218.816 29a15.815 15.815 0 0 1-9.761 14.608 15.812 15.812 0 1 1-6.051-30.421A15.833 15.833 0 0 1 218.816 29zm-29.305 0a13.497 13.497 0 0 0 8.33 12.465 13.489 13.489 0 0 0 14.704-2.925 13.487 13.487 0 0 0 2.924-14.704 13.49 13.49 0 0 0-12.465-8.33A13.508 13.508 0 0 0 189.511 29z" fill="#9562B3"/><path d="M223.214 29a20.213 20.213 0 0 1-12.475 18.67 20.21 20.21 0 0 1-18.961-35.473 20.207 20.207 0 0 1 11.227-3.405A20.23 20.23 0 0 1 223.214 29zm-38.097 0a17.886 17.886 0 0 0 11.043 16.527 17.887 17.887 0 0 0 16.783-31.4 17.886 17.886 0 0 0-9.938-3.015A17.91 17.91 0 0 0 185.117 29z" fill="#9562B3"/><path d="M227.609 29A24.601 24.601 0 0 1 212.42 51.73 24.603 24.603 0 0 1 178.873 33.8a24.609 24.609 0 0 1 10.462-25.258 24.604 24.604 0 0 1 13.67-4.146A24.63 24.63 0 0 1 227.609 29zm-46.889 0a22.281 22.281 0 0 0 13.757 20.588 22.284 22.284 0 1 0 8.528-42.872A22.306 22.306 0 0 0 180.72 29z" fill="#9562B3"/><path d="M232.004 29a29.004 29.004 0 0 1-17.902 26.792 29.002 29.002 0 0 1-39.541-21.134A29 29 0 0 1 203.004 0a29.03 29.03 0 0 1 29 29zm-55.68 0a26.685 26.685 0 0 0 16.47 24.65 26.68 26.68 0 1 0 10.21-51.33A26.711 26.711 0 0 0 176.324 29z" fill="#9562B3"/><path d="M173.998 86.999c0-16.017-12.984-29-29-29s-29 12.983-29 29c0 16.016 12.984 29 29 29s29-12.984 29-29z" fill="#F0CEFF"/><path d="M319.036 29.036s13.908-.958 21.896 7.032c7.989 7.988 7.032 21.896 7.032 21.896s-13.909.958-21.897-7.031c-7.988-7.99-7.031-21.897-7.031-21.897zM290.036.036s13.908-.957 21.896 7.031c7.989 7.99 7.032 21.897 7.032 21.897s-13.909.958-21.897-7.031c-7.988-7.99-7.031-21.897-7.031-21.897z" fill="#FF97BA"/><path d="M318.964 29.035s.957 13.909-7.031 21.897c-7.989 7.988-21.897 7.031-21.897 7.031s-.958-13.908 7.031-21.897c7.989-7.988 21.897-7.03 21.897-7.03zM347.964.036s.957 13.908-7.031 21.896c-7.989 7.989-21.897 7.032-21.897 7.032s-.958-13.909 7.031-21.897C334.056-.921 347.964.036 347.964.036zM260.968 87.034s.957 13.908-7.032 21.897c-7.988 7.988-21.896 7.031-21.896 7.031s-.958-13.909 7.031-21.897c7.989-7.988 21.897-7.031 21.897-7.031zM289.968 58.034s.957 13.908-7.032 21.896c-7.988 7.989-21.896 7.032-21.896 7.032s-.958-13.909 7.031-21.897c7.989-7.988 21.897-7.031 21.897-7.031z" fill="#FF97BA"/><path d="M260.968 86.963s-13.909.958-21.897-7.031c-7.988-7.99-7.031-21.897-7.031-21.897s13.908-.958 21.896 7.031c7.989 7.99 7.032 21.897 7.032 21.897zM289.968 115.962s-13.909.958-21.897-7.031c-7.988-7.989-7.031-21.897-7.031-21.897s13.908-.957 21.896 7.032c7.989 7.989 7.032 21.896 7.032 21.896z" fill="#FF97BA"/><path d="M347.998 29c0 16.016 12.984 29 29 29s29-12.984 29-29-12.984-29-29-29-29 12.984-29 29zM405.998 29c0 16.016 12.984 29 29 29s29-12.984 29-29-12.984-29-29-29-29 12.984-29 29z" fill="#F0CEFF"/><path d="M376.964 87.034s.957 13.908-7.031 21.897c-7.989 7.988-21.897 7.031-21.897 7.031s-.958-13.909 7.031-21.897c7.989-7.988 21.897-7.031 21.897-7.031zM405.964 58.034s.957 13.908-7.031 21.896c-7.989 7.989-21.897 7.032-21.897 7.032s-.958-13.909 7.031-21.897c7.989-7.988 21.897-7.031 21.897-7.031z" fill="#FF97BA"/><path d="M376.964 86.963s-13.909.958-21.897-7.031c-7.988-7.99-7.031-21.897-7.031-21.897s13.908-.958 21.896 7.031c7.989 7.99 7.032 21.897 7.032 21.897zM405.964 115.962s-13.909.958-21.897-7.031c-7.988-7.989-7.031-21.897-7.031-21.897s13.908-.957 21.896 7.032c7.989 7.989 7.032 21.896 7.032 21.896zM435.032 87.035s13.908-.958 21.897 7.031c7.988 7.989 7.031 21.897 7.031 21.897s-13.908.957-21.897-7.032c-7.988-7.989-7.031-21.896-7.031-21.896zM406.032 58.035s13.908-.958 21.897 7.031c7.988 7.989 7.031 21.897 7.031 21.897s-13.908.957-21.897-7.032c-7.988-7.989-7.031-21.896-7.031-21.896z" fill="#FF97BA"/><path d="M434.96 87.034s.958 13.908-7.031 21.896c-7.989 7.989-21.897 7.032-21.897 7.032s-.958-13.909 7.031-21.897c7.989-7.988 21.897-7.031 21.897-7.031zM463.96 58.034s.958 13.909-7.031 21.897c-7.989 7.988-21.897 7.031-21.897 7.031s-.958-13.908 7.031-21.896c7.989-7.989 21.897-7.032 21.897-7.032z" fill="#FF97BA"/><path d="M551.004 0a29 29 0 1 0 0 58V0z" fill="#C72462"/><path d="M580.004 0a29 29 0 1 0 0 58V0zM493.004 57.998a29 29 0 1 0 0 58.001v-58z" fill="#C72462"/><path d="M522.004 57.998a29 29 0 1 0 0 58.001v-58zM29 115.997a29.002 29.002 0 0 0-29 29 29.001 29.001 0 0 0 29 29v-58zM58 115.997a29.002 29.002 0 0 0-29 29 29 29 0 0 0 29 29v-58zM116 144.997a29 29 0 1 0-58 0h58z" fill="#C72462"/><path d="M116 173.997a29 29 0 1 0-58 0h58z" fill="#C72462"/><path d="M29 174.002c-16.016 0-29 12.984-29 29 0 16.017 12.984 29 29 29s29-12.983 29-29c0-16.016-12.984-29-29-29z" fill="#F0CEFF"/><path d="M115.998 203.002a29 29 0 1 0 58 0h-58z" fill="#C72462"/><path d="M115.998 174.002a29 29 0 1 0 58 0h-58z" fill="#C72462"/><path d="M261.004 173.997c16.016 0 29-12.984 29-29 0-16.017-12.984-29-29-29s-29 12.983-29 29c0 16.016 12.984 29 29 29z" fill="#F0CEFF"/><path d="M348 144.997a29 29 0 1 0-58 0h58z" fill="#C72462"/><path d="M348 173.997a29 29 0 1 0-58 0h58z" fill="#C72462"/><path d="M261.04 203.039s13.908-.958 21.896 7.031c7.989 7.989 7.032 21.897 7.032 21.897s-13.909.957-21.897-7.032c-7.988-7.989-7.031-21.896-7.031-21.896zM232.04 174.039s13.908-.958 21.896 7.031c7.989 7.989 7.032 21.897 7.032 21.897s-13.909.957-21.897-7.032c-7.988-7.989-7.031-21.896-7.031-21.896z" fill="#FF97BA"/><path d="M260.968 203.038s.957 13.908-7.032 21.896c-7.988 7.989-21.896 7.032-21.896 7.032s-.958-13.909 7.031-21.897c7.989-7.988 21.897-7.031 21.897-7.031zM289.968 174.038s.957 13.909-7.032 21.897c-7.988 7.988-21.896 7.031-21.896 7.031s-.958-13.908 7.031-21.897c7.989-7.988 21.897-7.031 21.897-7.031z" fill="#FF97BA"/><path d="M376.998 173.997a29.002 29.002 0 0 0 20.506-49.507 29 29 0 0 0-20.506-8.493v58z" fill="#C72462"/><path d="M347.998 173.997a29.002 29.002 0 0 0 20.506-49.507 29 29 0 0 0-20.506-8.493v58zM406 203.002a29 29 0 1 0-58 0h58z" fill="#C72462"/><path d="M406 232.002a29 29 0 1 0-58 0h58zM522.004 144.997a29 29 0 1 0-58 0h58z" fill="#C72462"/><path d="M522.004 173.997a29 29 0 1 0-58 0h58z" fill="#C72462"/><path d="M551.038 144.961s-.958-13.909 7.031-21.897c7.989-7.988 21.897-7.031 21.897-7.031s.958 13.908-7.031 21.896c-7.989 7.989-21.897 7.032-21.897 7.032zM522.038 173.961s-.958-13.909 7.031-21.897c7.989-7.988 21.897-7.031 21.897-7.031s.958 13.908-7.031 21.896c-7.989 7.989-21.897 7.032-21.897 7.032z" fill="#FF97BA"/><path d="M551.038 145.032s13.909-.958 21.897 7.031c7.988 7.989 7.031 21.897 7.031 21.897s-13.908.957-21.897-7.032c-7.988-7.988-7.031-21.896-7.031-21.896zM522.038 116.032s13.909-.957 21.897 7.032c7.988 7.988 7.031 21.896 7.031 21.896s-13.908.958-21.897-7.031c-7.988-7.989-7.031-21.897-7.031-21.897z" fill="#FF97BA"/><path d="M522.004 203.002c0-16.016-12.984-29-29-29s-29 12.984-29 29c0 16.017 12.984 29 29 29s29-12.983 29-29z" fill="#F0CEFF"/><path d="M550.968 203.038s.957 13.909-7.032 21.897c-7.988 7.988-21.896 7.031-21.896 7.031s-.958-13.908 7.031-21.896c7.989-7.989 21.897-7.032 21.897-7.032zM579.968 174.038s.957 13.909-7.032 21.897c-7.988 7.988-21.896 7.031-21.896 7.031s-.958-13.908 7.031-21.896c7.989-7.989 21.897-7.032 21.897-7.032z" fill="#FF97BA"/><path d="M550.968 202.967s-13.909.958-21.897-7.031c-7.988-7.989-7.031-21.897-7.031-21.897s13.908-.957 21.896 7.032c7.989 7.988 7.032 21.896 7.032 21.896zM579.968 231.967s-13.909.957-21.897-7.032c-7.988-7.988-7.031-21.896-7.031-21.896s13.908-.958 21.896 7.031c7.989 7.989 7.032 21.897 7.032 21.897z" fill="#FF97BA"/><path d="M86.998 232.001c-16.016 0-29 12.984-29 29 0 16.017 12.984 29 29 29s29-12.983 29-29c0-16.016-12.984-29-29-29zM29 348c16.016 0 29-12.984 29-29s-12.984-29-29-29-29 12.984-29 29 12.984 29 29 29z" fill="#F0CEFF"/><path d="M79.978 319a7.019 7.019 0 1 1 7.02 7.021 7.025 7.025 0 0 1-7.02-7.021zm11.719 0a4.697 4.697 0 1 0-4.698 4.698A4.708 4.708 0 0 0 91.697 319z" fill="#9562B3"/><path d="M75.58 319a11.415 11.415 0 0 1 7.047-10.549 11.423 11.423 0 0 1 12.443 2.475 11.418 11.418 0 0 1-8.073 19.491A11.435 11.435 0 0 1 75.579 319zm20.514 0a9.097 9.097 0 1 0-9.097 9.097A9.108 9.108 0 0 0 96.094 319z" fill="#9562B3"/><path d="M71.186 319.001a15.81 15.81 0 0 1 18.897-15.509 15.814 15.814 0 0 1 11.524 21.56 15.812 15.812 0 0 1-14.609 9.761 15.83 15.83 0 0 1-15.813-15.812zm29.305 0a13.495 13.495 0 0 0-16.125-13.234 13.496 13.496 0 0 0-9.834 18.397 13.49 13.49 0 0 0 12.466 8.329 13.51 13.51 0 0 0 13.493-13.492z" fill="#9562B3"/><path d="M66.788 319a20.207 20.207 0 0 1 34.498-14.29 20.21 20.21 0 0 1-14.29 34.498A20.233 20.233 0 0 1 66.789 319zm38.097 0a17.886 17.886 0 0 0-30.537-12.649 17.889 17.889 0 0 0 12.649 30.537A17.91 17.91 0 0 0 104.885 319z" fill="#9562B3"/><path d="M62.393 319a24.604 24.604 0 1 1 24.604 24.604A24.633 24.633 0 0 1 62.393 319zm46.889 0a22.28 22.28 0 0 0-13.757-20.588 22.288 22.288 0 0 0-24.285 4.831 22.281 22.281 0 0 0-4.83 24.285 22.286 22.286 0 0 0 20.587 13.756A22.31 22.31 0 0 0 109.282 319z" fill="#9562B3"/><path d="M57.998 319a29.001 29.001 0 1 1 29 29 29.033 29.033 0 0 1-29-29zm55.68 0a26.684 26.684 0 0 0-45.546-18.866 26.686 26.686 0 0 0-5.783 29.076 26.684 26.684 0 0 0 24.649 16.47 26.714 26.714 0 0 0 18.857-7.823A26.715 26.715 0 0 0 113.678 319z" fill="#9562B3"/><path d="M144.96 319.036s.958 13.908-7.031 21.896c-7.989 7.989-21.897 7.032-21.897 7.032s-.958-13.909 7.031-21.897c7.989-7.988 21.897-7.031 21.897-7.031zM173.96 290.036s.958 13.908-7.031 21.896c-7.989 7.989-21.897 7.032-21.897 7.032s-.958-13.909 7.031-21.897c7.989-7.988 21.897-7.031 21.897-7.031z" fill="#FF97BA"/><path d="M144.96 318.965s-13.908.957-21.897-7.031c-7.988-7.989-7.031-21.897-7.031-21.897s13.908-.958 21.897 7.031c7.988 7.989 7.031 21.897 7.031 21.897zM173.96 347.964s-13.908.958-21.897-7.031c-7.988-7.989-7.031-21.897-7.031-21.897s13.908-.957 21.897 7.032c7.988 7.989 7.031 21.896 7.031 21.896z" fill="#FF97BA"/><path d="M232.002 261.001a29 29 0 1 0 58 0h-58z" fill="#C72462"/><path d="M232.002 232.001a29 29 0 1 0 58 0h-58z" fill="#C72462"/><path d="M435.032 318.964s-.957-13.908 7.032-21.896c7.988-7.989 21.896-7.032 21.896-7.032s.958 13.909-7.031 21.897c-7.989 7.988-21.897 7.031-21.897 7.031zM406.032 347.964s-.957-13.908 7.032-21.896c7.988-7.989 21.896-7.032 21.896-7.032s.958 13.909-7.031 21.897c-7.989 7.988-21.897 7.031-21.897 7.031z" fill="#FF97BA"/><path d="M435.032 319.035s13.909-.957 21.897 7.031c7.988 7.989 7.031 21.897 7.031 21.897s-13.908.958-21.896-7.031c-7.989-7.989-7.032-21.897-7.032-21.897zM406.032 290.036s13.909-.958 21.897 7.031c7.988 7.989 7.031 21.897 7.031 21.897s-13.908.957-21.896-7.032c-7.989-7.989-7.032-21.896-7.032-21.896z" fill="#FF97BA"/><path d="M558.022 261.002a7.016 7.016 0 0 1-11.98 4.959 7.018 7.018 0 0 1 4.959-11.98 7.03 7.03 0 0 1 7.021 7.021zm-11.719 0a4.701 4.701 0 0 0 2.901 4.34 4.695 4.695 0 0 0 5.119-1.019 4.696 4.696 0 1 0-6.641-6.641 4.707 4.707 0 0 0-1.379 3.32z" fill="#9562B3"/><path d="M562.421 261.002a11.423 11.423 0 0 1-7.048 10.548 11.416 11.416 0 0 1-14.918-14.917 11.417 11.417 0 0 1 10.548-7.048 11.432 11.432 0 0 1 11.418 11.417zm-20.515 0a9.094 9.094 0 0 0 5.615 8.405 9.105 9.105 0 0 0 5.257.518 9.105 9.105 0 0 0 7.148-7.148 9.093 9.093 0 0 0-3.869-9.339 9.092 9.092 0 0 0-11.484 1.134 9.106 9.106 0 0 0-2.667 6.43z" fill="#9562B3"/><path d="M566.815 261.001a15.817 15.817 0 0 1-9.762 14.609 15.812 15.812 0 1 1-6.051-30.422 15.834 15.834 0 0 1 15.813 15.813zm-29.306 0a13.496 13.496 0 0 0 8.33 12.465 13.48 13.48 0 0 0 7.795.768 13.486 13.486 0 0 0 10.601-10.601 13.49 13.49 0 0 0-13.233-16.125 13.51 13.51 0 0 0-13.493 13.493z" fill="#9562B3"/><path d="M571.212 261.002a20.214 20.214 0 0 1-12.475 18.67 20.212 20.212 0 0 1-26.404-26.404 20.213 20.213 0 0 1 18.67-12.475 20.228 20.228 0 0 1 20.209 20.209zm-38.097 0a17.885 17.885 0 0 0 11.043 16.526 17.888 17.888 0 1 0 6.845-34.415 17.912 17.912 0 0 0-17.888 17.889z" fill="#9562B3"/><path d="M575.607 261.001a24.603 24.603 0 1 1-24.604-24.604 24.631 24.631 0 0 1 24.604 24.604zm-46.889 0a22.283 22.283 0 0 0 26.632 21.856 22.29 22.29 0 0 0 17.509-17.508 22.285 22.285 0 0 0-21.856-26.632 22.312 22.312 0 0 0-22.285 22.284z" fill="#9562B3"/><path d="M580.002 261.001a29.005 29.005 0 0 1-17.902 26.793 29 29 0 1 1-11.098-55.793 29.034 29.034 0 0 1 29 29zm-55.68 0a26.684 26.684 0 0 0 16.47 24.65 26.687 26.687 0 0 0 29.076-5.784 26.68 26.68 0 0 0-18.866-45.546 26.714 26.714 0 0 0-26.68 26.68z" fill="#9562B3"/><path d="M493.004 348c16.016 0 29-12.984 29-29s-12.984-29-29-29-29 12.984-29 29 12.984 29 29 29z" fill="#F0CEFF"/><path d="M551.038 318.964s-.958-13.908 7.031-21.896c7.989-7.989 21.897-7.032 21.897-7.032s.958 13.909-7.031 21.897c-7.989 7.988-21.897 7.031-21.897 7.031zM522.038 347.964s-.958-13.908 7.031-21.896c7.989-7.989 21.897-7.032 21.897-7.032s.958 13.909-7.031 21.897c-7.989 7.988-21.897 7.031-21.897 7.031z" fill="#FF97BA"/><path d="M551.038 319.035s13.909-.957 21.897 7.031c7.988 7.989 7.031 21.897 7.031 21.897s-13.908.958-21.897-7.031c-7.988-7.989-7.031-21.897-7.031-21.897zM522.038 290.036s13.909-.958 21.897 7.031c7.988 7.989 7.031 21.897 7.031 21.897s-13.908.957-21.897-7.032c-7.988-7.989-7.031-21.896-7.031-21.896z" fill="#FF97BA"/><path d="M29 347.999a28.998 28.998 0 0 0-20.506 49.506A28.998 28.998 0 0 0 29 405.999v-58z" fill="#C72462"/><path d="M58 347.999a28.998 28.998 0 0 0-20.506 49.506A28.998 28.998 0 0 0 58 405.999v-58z" fill="#C72462"/><path d="M29 463.998c16.016 0 29-12.984 29-29 0-16.017-12.984-29-29-29s-29 12.983-29 29c0 16.016 12.984 29 29 29z" fill="#F0CEFF"/><path d="M94.02 434.998a7.015 7.015 0 0 1-4.333 6.481 7.016 7.016 0 0 1-9.568-5.114 7.02 7.02 0 0 1 2.983-7.204 7.008 7.008 0 0 1 8.86.874 7.03 7.03 0 0 1 2.058 4.963zm-11.718 0a4.7 4.7 0 0 0 8.02 3.322 4.701 4.701 0 0 0-.713-7.229A4.699 4.699 0 0 0 87 430.3a4.703 4.703 0 0 0-4.697 4.698z" fill="#9562B3"/><path d="M98.419 434.998A11.418 11.418 0 1 1 87 423.581a11.43 11.43 0 0 1 11.418 11.417zm-20.515 0a9.096 9.096 0 1 0 9.097-9.097 9.102 9.102 0 0 0-9.097 9.097z" fill="#9562B3"/><path d="M102.813 434.997a15.817 15.817 0 0 1-9.762 14.609A15.812 15.812 0 1 1 87 419.184a15.834 15.834 0 0 1 15.813 15.813zm-29.306 0A13.492 13.492 0 1 0 87 421.504a13.51 13.51 0 0 0-13.493 13.493z" fill="#9562B3"/><path d="M107.21 434.998a20.211 20.211 0 0 1-24.151 19.82A20.212 20.212 0 0 1 67.18 438.94a20.209 20.209 0 0 1 19.82-24.151 20.229 20.229 0 0 1 20.209 20.209zm-38.097 0a17.888 17.888 0 1 0 17.888-17.889 17.91 17.91 0 0 0-17.888 17.889z" fill="#9562B3"/><path d="M111.605 434.997a24.6 24.6 0 0 1-15.189 22.732 24.61 24.61 0 0 1-26.813-5.334A24.603 24.603 0 0 1 87 410.393a24.632 24.632 0 0 1 24.604 24.604zm-46.889 0a22.285 22.285 0 1 0 22.285-22.284 22.31 22.31 0 0 0-22.284 22.284z" fill="#9562B3"/><path d="M116 434.998a29.004 29.004 0 0 1-17.902 26.792A29 29 0 1 1 87 405.998a29.034 29.034 0 0 1 29 29zm-55.68 0A26.679 26.679 0 1 0 87 408.318a26.708 26.708 0 0 0-26.68 26.68z" fill="#9562B3"/><path d="M115.998 376.999a28.998 28.998 0 0 0 29 29 28.998 28.998 0 0 0 29-29h-58z" fill="#C72462"/><path d="M115.998 347.999a28.998 28.998 0 0 0 29 29 28.998 28.998 0 0 0 29-29h-58z" fill="#C72462"/><path d="M173.996 434.998c0-16.017-12.984-29-29-29s-29 12.983-29 29c0 16.016 12.984 29 29 29s29-12.984 29-29z" fill="#F0CEFF"/><path d="M319 347.999a28.998 28.998 0 0 0-29 29 28.998 28.998 0 0 0 29 29v-58z" fill="#C72462"/><path d="M348 347.999a28.998 28.998 0 0 0-29 29 28.998 28.998 0 0 0 29 29v-58z" fill="#C72462"/><path d="M376.998 347.999a29 29 0 1 0 0 58v-58z" fill="#C72462"/><path d="M405.998 347.999a29 29 0 1 0 0 58v-58z" fill="#C72462"/><path d="M463.996 376.999a28.998 28.998 0 0 0-29-29 29 29 0 0 0-29 29h58z" fill="#C72462"/><path d="M463.996 405.999a28.998 28.998 0 0 0-29-29 29 29 0 0 0-29 29h58zM493.004 347.999a28.998 28.998 0 0 0-29 29 28.998 28.998 0 0 0 29 29v-58z" fill="#C72462"/><path d="M522.004 347.999a28.998 28.998 0 0 0-29 29 28.998 28.998 0 0 0 29 29v-58zM551.002 405.999a29 29 0 1 0 0-58v58z" fill="#C72462"/><path d="M522.002 405.999a29 29 0 1 0 0-58v58zM0 493.003a29.001 29.001 0 0 0 58 0H0z" fill="#C72462"/><path d="M0 464.003a29.001 29.001 0 0 0 58 0H0z" fill="#C72462"/><path d="M28.964 551.037s.958 13.908-7.031 21.896c-7.99 7.989-21.897 7.032-21.897 7.032s-.958-13.909 7.031-21.897c7.99-7.988 21.897-7.031 21.897-7.031zM57.964 522.037s.958 13.908-7.032 21.896c-7.988 7.989-21.896 7.032-21.896 7.032s-.958-13.909 7.031-21.897c7.99-7.988 21.897-7.031 21.897-7.031z" fill="#FF97BA"/><path d="M28.964 550.966s-13.909.957-21.897-7.032C-.92 535.946.036 522.038.036 522.038s13.908-.958 21.896 7.031c7.989 7.989 7.032 21.897 7.032 21.897zM57.964 579.965s-13.909.958-21.897-7.031c-7.988-7.989-7.031-21.897-7.031-21.897s13.908-.957 21.896 7.032c7.989 7.989 7.032 21.896 7.032 21.896z" fill="#FF97BA"/><path d="M116 551.001a28.998 28.998 0 0 0-29-29 28.998 28.998 0 0 0-29 29h58z" fill="#C72462"/><path d="M116 580.001a28.998 28.998 0 0 0-29-29 28.998 28.998 0 0 0-29 29h58z" fill="#C72462"/><path d="M145.034 551.038s13.908-.958 21.897 7.031c7.988 7.989 7.031 21.897 7.031 21.897s-13.909.957-21.897-7.032c-7.988-7.989-7.031-21.896-7.031-21.896zM116.034 522.038s13.908-.958 21.897 7.031c7.988 7.989 7.031 21.897 7.031 21.897s-13.909.957-21.897-7.032c-7.988-7.989-7.031-21.896-7.031-21.896z" fill="#FF97BA"/><path d="M144.962 551.037s.958 13.908-7.031 21.896c-7.989 7.989-21.897 7.032-21.897 7.032s-.958-13.909 7.031-21.897c7.989-7.988 21.897-7.031 21.897-7.031zM173.962 522.037s.958 13.909-7.031 21.897c-7.989 7.988-21.897 7.031-21.897 7.031s-.958-13.908 7.031-21.897c7.989-7.988 21.897-7.031 21.897-7.031z" fill="#FF97BA"/><path d="M232.004 551.001a28.998 28.998 0 0 0-29-29 28.998 28.998 0 0 0-29 29h58z" fill="#C72462"/><path d="M232.004 580.001a28.998 28.998 0 0 0-29-29 28.998 28.998 0 0 0-29 29h58zM348 493.003a28.998 28.998 0 0 0-29-29 28.998 28.998 0 0 0-29 29h58z" fill="#C72462"/><path d="M348 522.003a28.998 28.998 0 0 0-29-29 28.998 28.998 0 0 0-29 29h58z" fill="#C72462"/><path d="M319.002 543.981a7.016 7.016 0 0 1 4.96 11.98 7.018 7.018 0 0 1-11.98-4.959 7.03 7.03 0 0 1 7.02-7.021zm0 11.718a4.701 4.701 0 0 0 4.341-2.9 4.704 4.704 0 0 0-1.019-5.119 4.695 4.695 0 0 0-7.228.711 4.702 4.702 0 0 0-.792 2.611 4.707 4.707 0 0 0 4.698 4.697z" fill="#9562B3"/><path d="M319.002 539.585a11.412 11.412 0 0 1 10.549 7.048 11.42 11.42 0 0 1-2.475 12.442 11.42 11.42 0 0 1-12.442 2.475 11.413 11.413 0 0 1-7.049-10.548 11.433 11.433 0 0 1 11.417-11.417zm0 20.514a9.093 9.093 0 0 0 8.405-5.615 9.094 9.094 0 0 0-1.971-9.914 9.098 9.098 0 0 0-15.531 6.432 9.11 9.11 0 0 0 9.097 9.097z" fill="#9562B3"/><path d="M319.002 535.188a15.817 15.817 0 0 1 14.609 9.762 15.811 15.811 0 0 1-20.66 20.66 15.817 15.817 0 0 1-9.762-14.609 15.834 15.834 0 0 1 15.813-15.813zm0 29.305a13.49 13.49 0 0 0 13.233-16.124 13.486 13.486 0 0 0-10.601-10.601 13.489 13.489 0 0 0-13.851 5.737 13.496 13.496 0 0 0-2.274 7.496 13.51 13.51 0 0 0 13.493 13.492z" fill="#9562B3"/><path d="M319.001 530.793a20.206 20.206 0 0 1 18.67 12.475 20.212 20.212 0 0 1-26.404 26.404 20.206 20.206 0 0 1-12.475-18.67 20.228 20.228 0 0 1 20.209-20.209zm0 38.097a17.885 17.885 0 0 0 16.526-11.043 17.888 17.888 0 1 0-34.415-6.845 17.912 17.912 0 0 0 17.889 17.888z" fill="#9562B3"/><path d="M319.001 526.397a24.603 24.603 0 1 1-24.604 24.604 24.627 24.627 0 0 1 7.215-17.389 24.627 24.627 0 0 1 17.389-7.215zm0 46.888a22.282 22.282 0 0 0 21.856-26.631 22.285 22.285 0 0 0-30.384-16.241 22.285 22.285 0 0 0-13.756 20.588 22.312 22.312 0 0 0 22.284 22.284z" fill="#9562B3"/><path d="M319.002 522.001a28.994 28.994 0 0 1 26.792 17.903 28.998 28.998 0 0 1-37.89 37.89 29.004 29.004 0 0 1-17.902-26.793 29.034 29.034 0 0 1 29-29zm0 55.68a26.679 26.679 0 0 0 5.205-52.847 26.687 26.687 0 0 0-27.389 11.345 26.683 26.683 0 0 0-4.496 14.822 26.713 26.713 0 0 0 26.68 26.68zM376.999 500.024a7.022 7.022 0 0 1-6.481-4.334 7.015 7.015 0 0 1 5.115-9.567 7.016 7.016 0 0 1 6.329 11.842 7.03 7.03 0 0 1-4.963 2.059zm0-11.719a4.693 4.693 0 0 0-4.34 2.9 4.695 4.695 0 0 0 1.018 5.12 4.696 4.696 0 0 0 7.229-.712 4.7 4.7 0 0 0 .791-2.61 4.706 4.706 0 0 0-4.698-4.698z" fill="#9562B3"/><path d="M377 504.42a11.42 11.42 0 0 1-11.199-13.645 11.42 11.42 0 0 1 15.567-8.321 11.413 11.413 0 0 1 3.701 18.618A11.433 11.433 0 0 1 377 504.42zm0-20.515a9.094 9.094 0 0 0-8.405 5.615 9.097 9.097 0 1 0 17.502 3.482 9.107 9.107 0 0 0-9.097-9.097z" fill="#9562B3"/><path d="M377 508.816a15.809 15.809 0 0 1-14.609-9.761 15.813 15.813 0 1 1 30.422-6.052A15.832 15.832 0 0 1 377 508.816zm0-29.305a13.488 13.488 0 0 0-12.465 8.329 13.487 13.487 0 0 0 9.833 18.397 13.497 13.497 0 0 0 13.851-5.737 13.5 13.5 0 0 0 2.274-7.497A13.511 13.511 0 0 0 377 479.511z" fill="#9562B3"/><path d="M377.001 513.211a20.206 20.206 0 0 1-18.67-12.475 20.219 20.219 0 0 1-1.15-11.676 20.203 20.203 0 0 1 27.554-14.727 20.205 20.205 0 0 1 12.475 18.67 20.23 20.23 0 0 1-20.209 20.208zm0-38.097a17.893 17.893 0 0 0-16.526 11.043 17.884 17.884 0 0 0 3.877 19.495 17.884 17.884 0 0 0 19.495 3.877 17.885 17.885 0 0 0 11.043-16.526 17.908 17.908 0 0 0-17.889-17.889z" fill="#9562B3"/><path d="M377.001 517.607a24.608 24.608 0 0 1-22.732-15.188 24.61 24.61 0 0 1 5.334-26.814 24.6 24.6 0 0 1 26.813-5.333 24.6 24.6 0 0 1 15.189 22.731 24.635 24.635 0 0 1-24.604 24.604zm0-46.888a22.285 22.285 0 1 0 22.284 22.284 22.31 22.31 0 0 0-22.284-22.284z" fill="#9562B3"/><path d="M377 522.003a28.995 28.995 0 0 1-26.792-17.902A29 29 0 1 1 406 493.003a29.03 29.03 0 0 1-8.504 20.496A29.03 29.03 0 0 1 377 522.003zm0-55.68a26.684 26.684 0 0 0-18.866 45.546 26.683 26.683 0 0 0 41.05-4.043 26.687 26.687 0 0 0 4.496-14.823 26.713 26.713 0 0 0-26.68-26.68z" fill="#9562B3"/><path d="M434.996 464.003a29 29 0 1 0 0 58v-58z" fill="#C72462"/><path d="M463.996 464.003a29 29 0 1 0 0 58v-58z" fill="#C72462"/><path d="M406 551.001c0-16.016-12.984-29-29-29s-29 12.984-29 29c0 16.017 12.984 29 29 29s29-12.983 29-29z" fill="#F0CEFF"/><path d="M434.999 543.981a7.016 7.016 0 0 1 4.959 11.98 7.02 7.02 0 0 1-7.647 1.522 7.016 7.016 0 0 1-2.275-11.444 7.03 7.03 0 0 1 4.963-2.058zm0 11.718a4.7 4.7 0 0 0 4.34-2.9 4.695 4.695 0 0 0-6.138-6.138 4.701 4.701 0 0 0-2.9 4.341 4.701 4.701 0 0 0 4.698 4.697z" fill="#9562B3"/><path d="M434.998 539.585a11.412 11.412 0 0 1 10.549 7.048 11.42 11.42 0 0 1-2.475 12.442 11.42 11.42 0 0 1-12.442 2.475 11.413 11.413 0 0 1-7.049-10.548 11.433 11.433 0 0 1 11.417-11.417zm0 20.514a9.093 9.093 0 0 0 8.405-5.615 9.094 9.094 0 0 0-1.971-9.914 9.098 9.098 0 0 0-15.531 6.432 9.11 9.11 0 0 0 9.097 9.097z" fill="#9562B3"/><path d="M434.998 535.188a15.817 15.817 0 0 1 14.609 9.762 15.811 15.811 0 0 1-20.66 20.66 15.817 15.817 0 0 1-9.762-14.609 15.834 15.834 0 0 1 15.813-15.813zm0 29.305a13.49 13.49 0 0 0 13.233-16.124 13.486 13.486 0 0 0-10.601-10.601 13.489 13.489 0 0 0-13.851 5.737 13.496 13.496 0 0 0-2.274 7.496 13.51 13.51 0 0 0 13.493 13.492z" fill="#9562B3"/><path d="M434.997 530.793a20.203 20.203 0 0 1 18.67 12.475 20.211 20.211 0 0 1-14.728 27.554 20.22 20.22 0 0 1-11.676-1.15 20.214 20.214 0 0 1-12.475-18.67 20.228 20.228 0 0 1 20.209-20.209zm0 38.097a17.885 17.885 0 0 0 16.526-11.043 17.888 17.888 0 1 0-34.415-6.845 17.912 17.912 0 0 0 17.889 17.888z" fill="#9562B3"/><path d="M434.997 526.397a24.6 24.6 0 0 1 22.732 15.189 24.607 24.607 0 0 1-17.932 33.547 24.608 24.608 0 0 1-25.257-10.462 24.603 24.603 0 0 1-4.147-13.67 24.631 24.631 0 0 1 24.604-24.604zm0 46.888a22.282 22.282 0 0 0 21.856-26.631 22.278 22.278 0 0 0-17.508-17.509 22.286 22.286 0 0 0-26.632 21.856 22.312 22.312 0 0 0 22.284 22.284z" fill="#9562B3"/><path d="M434.998 522.001a28.998 28.998 0 0 1 26.793 17.903 29.006 29.006 0 0 1-6.287 31.604 29.006 29.006 0 0 1-31.604 6.286 29.004 29.004 0 0 1-17.902-26.793 29.034 29.034 0 0 1 29-29zm0 55.68a26.679 26.679 0 0 0 5.205-52.847 26.687 26.687 0 0 0-27.389 11.345 26.683 26.683 0 0 0-4.496 14.822 26.713 26.713 0 0 0 26.68 26.68zM500.024 493.003a7.01 7.01 0 0 1-1.184 3.898 7.018 7.018 0 1 1-5.837-10.919 7.028 7.028 0 0 1 7.021 7.021zm-11.719 0a4.701 4.701 0 0 0 5.615 4.608 4.704 4.704 0 0 0 3.691-3.692 4.7 4.7 0 0 0-4.608-5.614 4.706 4.706 0 0 0-4.698 4.698z" fill="#9562B3"/><path d="M504.422 493.003a11.411 11.411 0 0 1-7.047 10.549 11.424 11.424 0 0 1-12.443-2.475 11.42 11.42 0 0 1 1.73-17.567 11.423 11.423 0 0 1 6.343-1.924 11.428 11.428 0 0 1 11.417 11.417zm-20.514 0a9.094 9.094 0 0 0 5.615 8.405 9.097 9.097 0 1 0 3.482-17.502 9.107 9.107 0 0 0-9.097 9.097z" fill="#9562B3"/><path d="M508.816 493.002a15.814 15.814 0 1 1-15.812-15.812 15.83 15.83 0 0 1 15.812 15.812zm-29.305 0a13.494 13.494 0 0 0 26.726 2.633 13.488 13.488 0 0 0-22.769-12.169 13.511 13.511 0 0 0-3.957 9.536z" fill="#9562B3"/><path d="M513.214 493.003a20.211 20.211 0 0 1-24.151 19.82 20.21 20.21 0 0 1-14.728-27.553 20.21 20.21 0 0 1 18.67-12.475 20.232 20.232 0 0 1 20.209 20.208zm-38.097 0c0 3.538 1.049 6.997 3.015 9.938a17.883 17.883 0 0 0 18.363 7.607 17.893 17.893 0 0 0 14.055-14.055 17.892 17.892 0 0 0-7.607-18.364 17.89 17.89 0 0 0-9.938-3.014 17.907 17.907 0 0 0-17.888 17.888z" fill="#9562B3"/><path d="M517.609 493.003a24.6 24.6 0 0 1-15.189 22.731 24.6 24.6 0 0 1-26.813-5.333 24.61 24.61 0 0 1-5.334-26.814 24.608 24.608 0 0 1 22.732-15.188 24.63 24.63 0 0 1 24.604 24.604zm-46.889 0a22.28 22.28 0 0 0 13.757 20.588 22.287 22.287 0 0 0 30.384-16.241 22.288 22.288 0 0 0-21.856-26.631 22.31 22.31 0 0 0-22.285 22.284z" fill="#9562B3"/><path d="M522.004 493.003a29.001 29.001 0 0 1-49.506 20.506 29 29 0 0 1 20.506-49.506 29.033 29.033 0 0 1 29 29zm-55.68 0a26.684 26.684 0 0 0 45.546 18.866 26.683 26.683 0 0 0-4.043-41.05 26.687 26.687 0 0 0-14.823-4.496 26.713 26.713 0 0 0-26.68 26.68z" fill="#9562B3"/><path d="M551.038 492.967s-.958-13.908 7.031-21.897c7.989-7.988 21.897-7.031 21.897-7.031s.958 13.908-7.031 21.897c-7.989 7.988-21.897 7.031-21.897 7.031zM522.038 521.967s-.958-13.908 7.031-21.897c7.989-7.988 21.897-7.031 21.897-7.031s.958 13.908-7.031 21.897c-7.989 7.988-21.897 7.031-21.897 7.031z" fill="#FF97BA"/><path d="M551.038 493.038s13.909-.958 21.897 7.031c7.988 7.989 7.031 21.897 7.031 21.897s-13.908.958-21.897-7.031c-7.988-7.989-7.031-21.897-7.031-21.897zM522.038 464.039s13.909-.958 21.897 7.031c7.988 7.989 7.031 21.897 7.031 21.897s-13.908.957-21.897-7.032c-7.988-7.989-7.031-21.896-7.031-21.896z" fill="#FF97BA"/><path d="M551.003 558.022a7.022 7.022 0 0 1-6.88-8.388 7.019 7.019 0 0 1 13.901 1.367 7.029 7.029 0 0 1-7.021 7.021zm0-11.719a4.693 4.693 0 0 0-4.34 2.9 4.694 4.694 0 0 0 6.138 6.138 4.694 4.694 0 0 0 1.522-7.66 4.708 4.708 0 0 0-3.32-1.378z" fill="#9562B3"/><path d="M551.004 562.418a11.42 11.42 0 0 1-11.199-13.645 11.42 11.42 0 0 1 15.567-8.321 11.413 11.413 0 0 1 3.701 18.618 11.433 11.433 0 0 1-8.069 3.348zm0-20.515a9.1 9.1 0 0 0-8.405 5.616 9.093 9.093 0 0 0 1.971 9.914 9.093 9.093 0 0 0 13.997-1.378 9.096 9.096 0 0 0 1.534-5.055 9.107 9.107 0 0 0-9.097-9.097z" fill="#9562B3"/><path d="M551.004 566.814a15.809 15.809 0 0 1-14.609-9.761 15.813 15.813 0 1 1 30.421-6.051 15.826 15.826 0 0 1-15.812 15.812zm0-29.305a13.488 13.488 0 0 0-12.466 8.329 13.492 13.492 0 1 0 25.958 5.164 13.51 13.51 0 0 0-13.492-13.493z" fill="#9562B3"/><path d="M551.005 571.209a20.203 20.203 0 0 1-18.67-12.475 20.21 20.21 0 0 1 4.381-22.023 20.21 20.21 0 0 1 34.498 14.29 20.23 20.23 0 0 1-20.209 20.208zm0-38.097a17.893 17.893 0 0 0-16.526 11.043 17.884 17.884 0 0 0 3.877 19.495 17.892 17.892 0 0 0 27.523-2.711 17.893 17.893 0 0 0 3.015-9.938 17.908 17.908 0 0 0-17.889-17.889z" fill="#9562B3"/><path d="M551.005 575.605a24.608 24.608 0 0 1-22.732-15.188 24.61 24.61 0 0 1 5.334-26.814 24.6 24.6 0 0 1 26.813-5.333 24.6 24.6 0 0 1 15.189 22.731 24.635 24.635 0 0 1-24.604 24.604zm0-46.888a22.283 22.283 0 0 0-4.348 44.14 22.279 22.279 0 0 0 22.876-9.475 22.283 22.283 0 0 0 3.756-12.381 22.31 22.31 0 0 0-22.284-22.284z" fill="#9562B3"/><path d="M551.004 580.001a29.005 29.005 0 0 1-26.793-17.902 29 29 0 1 1 55.793-11.098 29.03 29.03 0 0 1-8.504 20.496 29.03 29.03 0 0 1-20.496 8.504zm0-55.68a26.684 26.684 0 0 0-18.866 45.546 26.68 26.68 0 0 0 29.076 5.783 26.684 26.684 0 0 0 16.47-24.649 26.715 26.715 0 0 0-7.823-18.857 26.715 26.715 0 0 0-18.857-7.823z" fill="#9562B3"/></g><defs><clipPath id="a"><path fill="#fff" d="M0 0h580v580H0z"/></clipPath></defs></svg>