<svg width="580" height="580" fill="none" xmlns="http://www.w3.org/2000/svg"><g clip-path="url(#a)"><g clip-path="url(#b)"><path d="M86.998 58c16.016 0 29-12.984 29-29s-12.984-29-29-29-29 12.984-29 29 12.984 29 29 29z" fill="#F2D3FF"/></g><g clip-path="url(#c)" fill="#B89CF6"><path d="M21.978 86.998a7.018 7.018 0 1 1 7.02 7.02 7.028 7.028 0 0 1-7.02-7.02zm11.719 0a4.698 4.698 0 1 0-4.698 4.698 4.706 4.706 0 0 0 4.698-4.698z"/><path d="M17.581 86.999A11.417 11.417 0 1 1 29 98.416 11.43 11.43 0 0 1 17.58 86.999zm20.515 0a9.097 9.097 0 1 0-9.097 9.097 9.106 9.106 0 0 0 9.097-9.097z"/><path d="M13.187 86.999A15.813 15.813 0 1 1 29 102.81a15.83 15.83 0 0 1-15.813-15.812zm29.306 0A13.493 13.493 0 1 0 29 100.49a13.507 13.507 0 0 0 13.492-13.492z"/><path d="M8.792 86.998a20.209 20.209 0 1 1 20.209 20.209A20.23 20.23 0 0 1 8.792 86.998zm38.097 0a17.888 17.888 0 1 0-17.888 17.889 17.912 17.912 0 0 0 17.888-17.889z"/><path d="M4.395 86.998A24.604 24.604 0 1 1 29 111.602 24.632 24.632 0 0 1 4.395 86.998zm46.888 0A22.283 22.283 0 1 0 29 109.282a22.305 22.305 0 0 0 22.284-22.284z"/><path d="M0 86.999a29 29 0 1 1 29 29 29.033 29.033 0 0 1-29-29zm55.68 0A26.68 26.68 0 1 0 29 113.679a26.714 26.714 0 0 0 26.68-26.68z"/></g><g clip-path="url(#d)"><path d="M115.928 115.926s-27.817 1.914-43.794-14.062C56.157 85.887 58.07 58.069 58.07 58.069s27.818-1.914 43.795 14.063c15.976 15.976 14.062 43.794 14.062 43.794z" fill="#FF97BA"/></g><g clip-path="url(#e)" fill="#B89CF6"><path d="M152.02 29.001a7.016 7.016 0 0 1-11.98 4.96 7.022 7.022 0 0 1-1.522-7.647 7.017 7.017 0 0 1 6.481-4.334 7.028 7.028 0 0 1 7.021 7.021zm-11.719 0a4.7 4.7 0 0 0 5.615 4.608 4.697 4.697 0 0 0-.917-9.306 4.704 4.704 0 0 0-4.698 4.698z"/><path d="M156.417 29a11.423 11.423 0 0 1-7.048 10.549 11.419 11.419 0 0 1-15.568-8.32 11.423 11.423 0 0 1 4.855-11.721 11.418 11.418 0 0 1 6.343-1.925A11.432 11.432 0 0 1 156.417 29zm-20.515 0a9.095 9.095 0 0 0 5.616 8.405A9.096 9.096 0 1 0 135.902 29z"/><path d="M160.811 29a15.816 15.816 0 0 1-9.762 14.61 15.811 15.811 0 0 1-20.66-20.66 15.816 15.816 0 0 1 14.609-9.762A15.83 15.83 0 0 1 160.811 29zm-29.305 0a13.496 13.496 0 0 0 8.329 12.466 13.49 13.49 0 0 0 18.396-9.833 13.49 13.49 0 0 0-13.233-16.125A13.507 13.507 0 0 0 131.506 29z"/><path d="M165.206 29a20.205 20.205 0 0 1-12.475 18.67 20.21 20.21 0 0 1-18.961-35.472 20.212 20.212 0 0 1 11.227-3.406 20.23 20.23 0 0 1 20.209 20.209zm-38.097 0a17.886 17.886 0 0 0 11.043 16.527 17.888 17.888 0 1 0 6.845-34.415 17.91 17.91 0 0 0-17.888 17.889z"/><path d="M169.603 29a24.6 24.6 0 0 1-15.189 22.732 24.602 24.602 0 0 1-33.547-17.931 24.609 24.609 0 0 1 10.462-25.258 24.606 24.606 0 0 1 13.67-4.146A24.63 24.63 0 0 1 169.603 29zm-46.888 0a22.28 22.28 0 0 0 26.631 21.857 22.282 22.282 0 0 0 16.241-30.384 22.285 22.285 0 0 0-20.588-13.756A22.308 22.308 0 0 0 122.715 29z"/><path d="M173.998 29a29.004 29.004 0 0 1-17.902 26.793 29.001 29.001 0 0 1-39.541-21.135A29 29 0 0 1 144.998 0a29.03 29.03 0 0 1 29 29zm-55.68 0a26.685 26.685 0 0 0 16.47 24.65 26.68 26.68 0 1 0 10.21-51.33A26.713 26.713 0 0 0 118.318 29z"/></g><g clip-path="url(#f)"><path d="M173.925 115.926s-27.818 1.914-43.795-14.062c-15.977-15.977-14.063-43.795-14.063-43.795s27.818-1.914 43.795 14.063c15.977 15.976 14.063 43.794 14.063 43.794z" fill="#FF97BA"/></g><g clip-path="url(#g)"><path d="M203.002 115.999a28.998 28.998 0 0 1-26.793-17.903 29 29 0 1 1 55.793-11.098V116h-29z" fill="#C72462"/></g><g clip-path="url(#h)"><path d="M290.002 29A29.004 29.004 0 0 1 272.1 55.793a29.001 29.001 0 0 1-27.21-50.905A29 29 0 0 1 261.002 0h29v29z" fill="#C72462"/></g><g clip-path="url(#i)"><path d="M319.002 0c-16.016 0-29 12.984-29 29 0 16.017 12.984 29 29 29s29-12.983 29-29c0-16.016-12.984-29-29-29z" fill="#F2D3FF"/></g><g clip-path="url(#j)"><path d="M261.002 115.999c16.016 0 29-12.984 29-29 0-16.017-12.984-29-29-29s-29 12.983-29 29c0 16.016 12.984 29 29 29z" fill="#F2D3FF"/></g><g clip-path="url(#k)"><path d="M319 115.999a28.998 28.998 0 0 1-26.792-17.903A29 29 0 1 1 348 87v29h-29z" fill="#C72462"/></g><g clip-path="url(#l)"><path d="M434.996 58c16.016 0 29-12.984 29-29s-12.984-29-29-29-29 12.984-29 29 12.984 29 29 29z" fill="#F2D3FF"/></g><g clip-path="url(#m)"><path d="M405.929 58.07s1.914 27.817-14.063 43.794c-15.977 15.976-43.794 14.062-43.794 14.062s-1.914-27.818 14.062-43.794c15.977-15.977 43.795-14.063 43.795-14.063z" fill="#FF97BA"/></g><g clip-path="url(#n)"><path d="M551.002 0c-16.016 0-29 12.984-29 29 0 16.017 12.984 29 29 29s29-12.983 29-29c0-16.016-12.984-29-29-29z" fill="#F2D3FF"/></g><g clip-path="url(#o)" fill="#B89CF6"><path d="M493.002 79.978a7.016 7.016 0 0 1 6.881 8.388 7.022 7.022 0 0 1-9.568 5.114 7.016 7.016 0 0 1-2.275-11.444 7.028 7.028 0 0 1 4.962-2.058zm0 11.719a4.7 4.7 0 0 0 4.341-2.9 4.705 4.705 0 0 0-1.019-5.12 4.698 4.698 0 0 0-8.02 3.322 4.709 4.709 0 0 0 4.698 4.698z"/><path d="M493.004 75.58a11.415 11.415 0 0 1 10.549 7.049 11.423 11.423 0 0 1-2.475 12.442 11.418 11.418 0 0 1-19.491-8.073 11.434 11.434 0 0 1 11.417-11.417zm0 20.516a9.096 9.096 0 1 0-9.097-9.098 9.107 9.107 0 0 0 9.097 9.097z"/><path d="M493.004 71.186a15.814 15.814 0 0 1 15.509 18.897 15.808 15.808 0 0 1-21.56 11.524 15.815 15.815 0 0 1-9.762-14.609 15.834 15.834 0 0 1 15.813-15.813zm0 29.305a13.494 13.494 0 0 0 9.541-23.034 13.496 13.496 0 0 0-20.76 2.045 13.497 13.497 0 0 0-2.274 7.496 13.506 13.506 0 0 0 13.493 13.493z"/><path d="M493.005 66.79a20.212 20.212 0 0 1 18.67 12.475 20.214 20.214 0 0 1-14.728 27.553 20.203 20.203 0 0 1-20.745-8.593 20.205 20.205 0 0 1-3.406-11.227 20.23 20.23 0 0 1 20.209-20.208zm0 38.097a17.893 17.893 0 0 0 16.526-11.043 17.89 17.89 0 0 0-23.372-23.372 17.883 17.883 0 0 0-11.043 16.526 17.913 17.913 0 0 0 17.889 17.889z"/><path d="M493.003 62.394a24.61 24.61 0 0 1 22.732 15.189 24.61 24.61 0 0 1-5.334 26.813 24.61 24.61 0 0 1-26.813 5.334 24.606 24.606 0 0 1-15.189-22.732 24.63 24.63 0 0 1 24.604-24.604zm0 46.889a22.283 22.283 0 0 0 21.856-26.632 22.288 22.288 0 0 0-17.508-17.509 22.286 22.286 0 0 0-26.632 21.856 22.312 22.312 0 0 0 22.284 22.285z"/><path d="M493.004 57.998A28.998 28.998 0 0 1 519.796 75.9a29 29 0 1 1-55.792 11.098 29.036 29.036 0 0 1 29-29zm0 55.68a26.684 26.684 0 0 0 18.866-45.546 26.686 26.686 0 0 0-29.076-5.783 26.684 26.684 0 0 0-16.47 24.649 26.713 26.713 0 0 0 26.68 26.68z"/></g><g clip-path="url(#p)"><path d="M551.002 57.998A28.998 28.998 0 0 1 577.794 75.9a29 29 0 1 1-55.792 11.098v-29h29z" fill="#C72462"/></g><g clip-path="url(#q)"><path d="M87 115.998c-16.016 0-29 12.983-29 29 0 16.016 12.984 29 29 29s29-12.984 29-29c0-16.017-12.984-29-29-29z" fill="#F2D3FF"/></g><g clip-path="url(#r)"><path d="M57.928 231.931s-27.817 1.914-43.794-14.062C-1.843 201.892.07 174.074.07 174.074s27.818-1.914 43.795 14.063c15.977 15.976 14.063 43.794 14.063 43.794z" fill="#FF97BA"/></g><g clip-path="url(#s)"><path d="M115.996 144.997a29.001 29.001 0 0 1 49.506-20.506 29 29 0 0 1-20.506 49.506h-29v-29z" fill="#C72462"/></g><g clip-path="url(#t)"><path d="M203.004 115.998c-16.016 0-29 12.983-29 29 0 16.016 12.984 29 29 29s29-12.984 29-29c0-16.017-12.984-29-29-29z" fill="#F2D3FF"/></g><g clip-path="url(#u)"><path d="M173.925 231.931s-27.818 1.914-43.795-14.062c-15.977-15.977-14.063-43.795-14.063-43.795s27.818-1.914 43.795 14.063c15.977 15.976 14.063 43.794 14.063 43.794z" fill="#FF97BA"/></g><g clip-path="url(#v)"><path d="M174.004 203.003a29.004 29.004 0 0 1 17.902-26.792 29 29 0 1 1 11.098 55.792h-29v-29z" fill="#C72462"/></g><g clip-path="url(#w)" fill="#B89CF6"><path d="M261.003 210.024a7.027 7.027 0 0 1-3.898-1.184 7.028 7.028 0 0 1-2.982-7.204 7.019 7.019 0 0 1 13.901 1.367 7.029 7.029 0 0 1-7.021 7.021zm0-11.719a4.693 4.693 0 0 0-4.34 2.9 4.694 4.694 0 0 0 6.138 6.138 4.694 4.694 0 0 0 1.522-7.66 4.708 4.708 0 0 0-3.32-1.378z"/><path d="M261.002 214.421a11.42 11.42 0 0 1-11.199-13.645 11.42 11.42 0 0 1 15.567-8.321 11.416 11.416 0 0 1 7.049 10.548 11.433 11.433 0 0 1-11.417 11.418zm0-20.515a9.094 9.094 0 0 0-8.405 5.615 9.097 9.097 0 1 0 17.502 3.482 9.107 9.107 0 0 0-9.097-9.097z"/><path d="M261.002 218.816a15.809 15.809 0 0 1-14.609-9.761 15.813 15.813 0 1 1 30.422-6.052 15.832 15.832 0 0 1-15.813 15.813zm0-29.305a13.488 13.488 0 0 0-12.465 8.329 13.487 13.487 0 0 0 9.833 18.397 13.497 13.497 0 0 0 13.851-5.737 13.5 13.5 0 0 0 2.274-7.497 13.511 13.511 0 0 0-13.493-13.492z"/><path d="M261.001 223.212a20.214 20.214 0 0 1-18.67-12.475 20.212 20.212 0 0 1 26.404-26.404 20.211 20.211 0 0 1 12.475 18.67 20.228 20.228 0 0 1-20.209 20.209zm0-38.097a17.885 17.885 0 0 0-16.526 11.043 17.888 17.888 0 1 0 34.415 6.845 17.912 17.912 0 0 0-17.889-17.888z"/><path d="M261.003 227.607a24.608 24.608 0 0 1-22.732-15.188 24.61 24.61 0 0 1 5.334-26.814 24.6 24.6 0 0 1 26.813-5.333 24.6 24.6 0 0 1 15.189 22.731 24.635 24.635 0 0 1-24.604 24.604zm0-46.888a22.285 22.285 0 1 0 22.284 22.284 22.31 22.31 0 0 0-22.284-22.284z"/><path d="M261.002 232.003a28.997 28.997 0 0 1-28.443-34.657 29 29 0 0 1 57.443 5.657 29.034 29.034 0 0 1-29 29zm0-55.68a26.68 26.68 0 1 0 26.68 26.68 26.713 26.713 0 0 0-26.68-26.68z"/></g><g clip-path="url(#x)"><path d="M377 173.997a28.995 28.995 0 0 1-26.792-17.902 29 29 0 0 1 21.134-39.541A29 29 0 0 1 406 144.997v29h-29z" fill="#C72462"/></g><g clip-path="url(#y)" fill="#B89CF6"><path d="M434.997 137.977a7.027 7.027 0 0 1 3.898 1.184 7.028 7.028 0 0 1 2.982 7.204 7.019 7.019 0 0 1-13.901-1.367 7.029 7.029 0 0 1 7.021-7.021zm0 11.719a4.693 4.693 0 0 0 4.34-2.9 4.694 4.694 0 0 0-6.138-6.138 4.694 4.694 0 0 0-1.522 7.66 4.708 4.708 0 0 0 3.32 1.378z"/><path d="M434.998 133.58a11.42 11.42 0 0 1 11.199 13.645 11.42 11.42 0 0 1-15.567 8.321 11.413 11.413 0 0 1-3.701-18.618 11.433 11.433 0 0 1 8.069-3.348zm0 20.515a9.094 9.094 0 0 0 8.405-5.615 9.097 9.097 0 1 0-17.502-3.482 9.107 9.107 0 0 0 9.097 9.097z"/><path d="M434.998 129.185a15.809 15.809 0 0 1 14.609 9.761 15.813 15.813 0 1 1-30.422 6.052 15.832 15.832 0 0 1 15.813-15.813zm0 29.305a13.488 13.488 0 0 0 12.465-8.329 13.487 13.487 0 0 0-9.833-18.397 13.497 13.497 0 0 0-13.851 5.737 13.5 13.5 0 0 0-2.274 7.497 13.511 13.511 0 0 0 13.493 13.492z"/><path d="M434.999 124.789a20.214 20.214 0 0 1 18.67 12.475 20.212 20.212 0 0 1-26.404 26.404 20.211 20.211 0 0 1-12.475-18.67 20.228 20.228 0 0 1 20.209-20.209zm0 38.097a17.885 17.885 0 0 0 16.526-11.043 17.888 17.888 0 1 0-34.415-6.845 17.912 17.912 0 0 0 17.889 17.888z"/><path d="M434.997 120.394a24.608 24.608 0 0 1 22.732 15.188 24.61 24.61 0 0 1-5.334 26.814 24.6 24.6 0 0 1-26.813 5.333 24.6 24.6 0 0 1-15.189-22.731 24.635 24.635 0 0 1 24.604-24.604zm0 46.888a22.283 22.283 0 0 0 4.348-44.14 22.278 22.278 0 0 0-22.876 9.475 22.283 22.283 0 0 0-3.756 12.381 22.31 22.31 0 0 0 22.284 22.284z"/><path d="M434.998 115.998a28.997 28.997 0 0 1 28.443 34.657 29 29 0 0 1-57.443-5.657 29.034 29.034 0 0 1 29-29zm0 55.68a26.68 26.68 0 1 0-26.68-26.68 26.713 26.713 0 0 0 26.68 26.68z"/></g><g clip-path="url(#z)" fill="#B89CF6"><path d="M369.976 203.003a7.016 7.016 0 0 1 11.98-4.96 7.019 7.019 0 0 1-4.959 11.981 7.032 7.032 0 0 1-7.021-7.021zm11.719 0a4.699 4.699 0 1 0-4.698 4.698 4.706 4.706 0 0 0 4.698-4.698z"/><path d="M365.579 203.004a11.42 11.42 0 0 1 13.645-11.199 11.42 11.42 0 0 1 8.321 15.567 11.416 11.416 0 0 1-10.548 7.049 11.433 11.433 0 0 1-11.418-11.417zm20.515 0a9.1 9.1 0 0 0-5.615-8.405 9.097 9.097 0 1 0-3.482 17.502 9.107 9.107 0 0 0 9.097-9.097z"/><path d="M361.185 203.003a15.808 15.808 0 0 1 9.762-14.608 15.812 15.812 0 1 1 6.051 30.421 15.83 15.83 0 0 1-15.813-15.813zm29.306 0a13.497 13.497 0 0 0-16.125-13.233 13.495 13.495 0 0 0-9.833 18.397 13.488 13.488 0 0 0 22.001 4.373 13.512 13.512 0 0 0 3.957-9.537z"/><path d="M356.79 203.003a20.211 20.211 0 0 1 24.151-19.82 20.212 20.212 0 0 1 14.728 27.554 20.214 20.214 0 0 1-18.67 12.475 20.228 20.228 0 0 1-20.209-20.209zm38.097 0a17.885 17.885 0 0 0-11.043-16.526 17.888 17.888 0 1 0-6.845 34.415 17.912 17.912 0 0 0 17.888-17.889z"/><path d="M352.393 203.003a24.6 24.6 0 0 1 15.189-22.731 24.6 24.6 0 0 1 26.813 5.333 24.61 24.61 0 0 1 5.334 26.814 24.608 24.608 0 0 1-22.732 15.188 24.63 24.63 0 0 1-24.604-24.604zm46.889 0a22.28 22.28 0 0 0-13.757-20.588 22.287 22.287 0 0 0-30.384 16.241 22.287 22.287 0 0 0 21.856 26.631 22.31 22.31 0 0 0 22.285-22.284z"/><path d="M347.998 203.003a29.004 29.004 0 0 1 17.902-26.792 29 29 0 1 1 11.098 55.792 29.034 29.034 0 0 1-29-29zm55.68 0a26.683 26.683 0 0 0-16.47-24.649 26.687 26.687 0 0 0-29.076 5.784 26.676 26.676 0 0 0-5.783 29.075 26.678 26.678 0 0 0 24.649 16.47 26.709 26.709 0 0 0 26.68-26.68z"/></g><g clip-path="url(#A)" fill="#B89CF6"><path d="M485.982 144.997a7.016 7.016 0 0 1 11.98-4.96 7.022 7.022 0 0 1 1.522 7.647 7.016 7.016 0 0 1-11.444 2.275 7.029 7.029 0 0 1-2.058-4.962zm11.718 0a4.701 4.701 0 0 0-2.9-4.341 4.704 4.704 0 0 0-5.12 1.019 4.695 4.695 0 0 0-1.018 5.119 4.701 4.701 0 0 0 4.34 2.901 4.707 4.707 0 0 0 4.698-4.698z"/><path d="M481.585 144.997a11.423 11.423 0 0 1 7.048-10.548 11.416 11.416 0 0 1 14.918 14.917 11.424 11.424 0 0 1-10.548 7.048 11.432 11.432 0 0 1-11.418-11.417zm20.515 0a9.094 9.094 0 0 0-5.616-8.405 9.101 9.101 0 0 0-9.914 1.972 9.097 9.097 0 0 0 6.433 15.53 9.103 9.103 0 0 0 9.097-9.097z"/><path d="M477.191 144.997a15.817 15.817 0 0 1 9.762-14.609 15.811 15.811 0 0 1 20.66 20.66 15.817 15.817 0 0 1-14.609 9.762 15.834 15.834 0 0 1-15.813-15.813zm29.305 0a13.49 13.49 0 0 0-16.124-13.233 13.486 13.486 0 0 0-10.601 10.601 13.489 13.489 0 0 0 5.737 13.851 13.496 13.496 0 0 0 7.496 2.274 13.505 13.505 0 0 0 13.492-13.493z"/><path d="M472.796 144.997a20.203 20.203 0 0 1 12.475-18.67 20.203 20.203 0 0 1 22.023 4.38 20.216 20.216 0 0 1 5.531 10.347 20.216 20.216 0 0 1-8.593 20.746 20.215 20.215 0 0 1-11.227 3.405 20.232 20.232 0 0 1-20.209-20.208zm38.097 0c0-3.538-1.049-6.997-3.015-9.938a17.883 17.883 0 0 0-18.363-7.607 17.89 17.89 0 0 0 3.49 35.433 17.907 17.907 0 0 0 17.888-17.888z"/><path d="M468.399 144.997a24.606 24.606 0 0 1 42.002-17.398 24.61 24.61 0 0 1 5.334 26.813 24.606 24.606 0 0 1-22.732 15.189 24.627 24.627 0 0 1-17.389-7.215 24.627 24.627 0 0 1-7.215-17.389zm46.888 0a22.29 22.29 0 0 0-3.755-12.381 22.291 22.291 0 0 0-22.876-9.475 22.285 22.285 0 0 0-16.241 30.384 22.285 22.285 0 0 0 20.588 13.756 22.312 22.312 0 0 0 22.284-22.284z"/><path d="M464.004 144.997a29.001 29.001 0 0 1 49.506-20.506 29 29 0 0 1-20.506 49.506 29.038 29.038 0 0 1-20.497-8.503 29.038 29.038 0 0 1-8.503-20.497zm55.68 0a26.684 26.684 0 0 0-45.546-18.866 26.683 26.683 0 0 0 4.043 41.05 26.687 26.687 0 0 0 14.823 4.496 26.713 26.713 0 0 0 26.68-26.68z"/></g><g clip-path="url(#B)"><path d="M580.002 144.998c0-16.017-12.984-29-29-29s-29 12.983-29 29c0 16.016 12.984 29 29 29s29-12.984 29-29z" fill="#F2D3FF"/></g><g clip-path="url(#C)"><path d="M464.075 231.933s-1.914-27.818 14.063-43.794c15.976-15.977 43.794-14.063 43.794-14.063s1.914 27.818-14.062 43.795c-15.977 15.976-43.795 14.062-43.795 14.062z" fill="#FF97BA"/></g><g clip-path="url(#D)"><path d="M29 290.001a28.996 28.996 0 0 1-26.792-17.902A28.999 28.999 0 1 1 58 261.001v29H29z" fill="#C72462"/></g><g clip-path="url(#E)"><path d="M115.998 261.002c0-16.016-12.984-29-29-29s-29 12.984-29 29 12.984 29 29 29 29-12.984 29-29z" fill="#F2D3FF"/></g><g clip-path="url(#F)"><path d="M57.929 290.071s1.914 27.817-14.063 43.794C27.89 349.842.072 347.928.072 347.928s-1.914-27.818 14.062-43.795c15.977-15.976 43.795-14.062 43.795-14.062z" fill="#FF97BA"/></g><g clip-path="url(#G)"><path d="M86.998 348c16.016 0 29-12.984 29-29s-12.984-29-29-29-29 12.984-29 29 12.984 29 29 29z" fill="#F2D3FF"/></g><g clip-path="url(#H)"><path d="M144.996 232.001a28.998 28.998 0 0 1 26.793 17.903 28.998 28.998 0 0 1-21.135 39.54 29 29 0 0 1-34.658-28.443v-29h29z" fill="#C72462"/></g><g clip-path="url(#I)"><path d="M174.004 261.001c0 16.017 12.984 29 29 29s29-12.983 29-29c0-16.016-12.984-29-29-29s-29 12.984-29 29z" fill="#F2D3FF"/></g><g clip-path="url(#J)"><path d="M319 290.001c16.016 0 29-12.983 29-29 0-16.016-12.984-29-29-29s-29 12.984-29 29c0 16.017 12.984 29 29 29z" fill="#F2D3FF"/></g><g clip-path="url(#K)"><path d="M347.929 290.071s1.914 27.817-14.063 43.794c-15.977 15.977-43.794 14.063-43.794 14.063s-1.914-27.818 14.062-43.795c15.977-15.976 43.795-14.062 43.795-14.062z" fill="#FF97BA"/></g><g clip-path="url(#L)" fill="#B89CF6"><path d="M434.997 253.982a7.011 7.011 0 0 1 6.481 4.333 7.015 7.015 0 0 1-1.522 7.647 7.02 7.02 0 0 1-7.647 1.522 7.016 7.016 0 0 1-2.275-11.444 7.03 7.03 0 0 1 4.963-2.058zm0 11.718a4.7 4.7 0 0 0 4.34-2.9 4.702 4.702 0 0 0-1.018-5.12 4.698 4.698 0 1 0-3.322 8.02z"/><path d="M434.998 249.585a11.412 11.412 0 0 1 10.549 7.048 11.42 11.42 0 0 1-2.475 12.442 11.42 11.42 0 0 1-12.442 2.475 11.413 11.413 0 0 1-7.049-10.548 11.433 11.433 0 0 1 11.417-11.417zm0 20.514a9.093 9.093 0 0 0 8.405-5.615 9.094 9.094 0 0 0-1.971-9.914 9.098 9.098 0 0 0-15.531 6.432 9.11 9.11 0 0 0 9.097 9.097z"/><path d="M434.998 245.189a15.817 15.817 0 0 1 14.609 9.762 15.811 15.811 0 0 1-20.66 20.66 15.817 15.817 0 0 1-9.762-14.609 15.834 15.834 0 0 1 15.813-15.813zm0 29.305a13.49 13.49 0 0 0 13.233-16.124 13.486 13.486 0 0 0-10.601-10.601 13.489 13.489 0 0 0-13.851 5.737 13.496 13.496 0 0 0-2.274 7.496 13.51 13.51 0 0 0 13.493 13.492z"/><path d="M434.999 240.794a20.213 20.213 0 0 1 18.67 12.475 20.218 20.218 0 0 1 1.15 11.676 20.21 20.21 0 0 1-40.029-3.943 20.23 20.23 0 0 1 20.209-20.208zm0 38.096a17.892 17.892 0 0 0 16.526-11.042 17.884 17.884 0 0 0-3.877-19.495 17.893 17.893 0 0 0-19.495-3.878 17.888 17.888 0 0 0-11.043 16.527 17.908 17.908 0 0 0 17.889 17.888z"/><path d="M434.997 236.398a24.6 24.6 0 0 1 22.732 15.189 24.607 24.607 0 0 1-17.932 33.547 24.608 24.608 0 0 1-25.257-10.462 24.603 24.603 0 0 1-4.147-13.67 24.631 24.631 0 0 1 24.604-24.604zm0 46.888a22.285 22.285 0 1 0-22.284-22.284 22.312 22.312 0 0 0 22.284 22.284z"/><path d="M434.998 232.002a29.005 29.005 0 0 1 26.793 17.902 29 29 0 1 1-55.793 11.098 29.03 29.03 0 0 1 8.504-20.496 29.03 29.03 0 0 1 20.496-8.504zm0 55.68a26.684 26.684 0 0 0 18.866-45.546 26.683 26.683 0 0 0-41.05 4.043 26.687 26.687 0 0 0-4.496 14.823 26.715 26.715 0 0 0 7.823 18.857 26.715 26.715 0 0 0 18.857 7.823z"/></g><g clip-path="url(#M)"><path d="M434.998 290c-16.016 0-29 12.984-29 29 0 16.017 12.984 29 29 29s29-12.983 29-29c0-16.016-12.984-29-29-29z" fill="#F2D3FF"/></g><g clip-path="url(#N)"><path d="M493.004 290.001a28.997 28.997 0 0 1-28.443-34.657 29 29 0 0 1 57.443 5.657v29h-29z" fill="#C72462"/></g><g clip-path="url(#O)"><path d="M551.002 232.002c-16.016 0-29 12.984-29 29s12.984 29 29 29 29-12.984 29-29-12.984-29-29-29z" fill="#F2D3FF"/></g><g clip-path="url(#P)"><path d="M58 376.999a29 29 0 1 1-29-29h29v29z" fill="#C72462"/></g><g clip-path="url(#Q)"><path d="M58 376.999c0 16.016 12.984 29 29 29s29-12.984 29-29c0-16.017-12.984-29-29-29s-29 12.983-29 29z" fill="#F2D3FF"/></g><g clip-path="url(#R)" fill="#B89CF6"><path d="M21.978 434.997a7.016 7.016 0 0 1 8.387-6.881 7.022 7.022 0 0 1 5.115 9.568 7.016 7.016 0 0 1-11.444 2.275 7.028 7.028 0 0 1-2.058-4.962zm11.719 0a4.7 4.7 0 0 0-2.9-4.341 4.705 4.705 0 0 0-5.12 1.019 4.698 4.698 0 0 0 3.322 8.02 4.709 4.709 0 0 0 4.698-4.698z"/><path d="M17.581 434.997A11.418 11.418 0 1 1 29 446.414a11.43 11.43 0 0 1-11.418-11.417zm20.515 0a9.096 9.096 0 1 0-9.097 9.097 9.102 9.102 0 0 0 9.097-9.097z"/><path d="M13.187 434.997A15.813 15.813 0 1 1 29 450.81a15.834 15.834 0 0 1-15.813-15.813zm29.306 0a13.494 13.494 0 0 0-23.034-9.541 13.495 13.495 0 0 0 2.045 20.76A13.497 13.497 0 0 0 29 448.49a13.506 13.506 0 0 0 13.492-13.493z"/><path d="M8.792 434.997a20.207 20.207 0 0 1 24.151-19.82 20.21 20.21 0 0 1 15.878 15.877A20.208 20.208 0 0 1 29 455.205a20.233 20.233 0 0 1-20.209-20.208zm38.097 0a17.886 17.886 0 0 0-11.043-16.527 17.89 17.89 0 0 0-16.784 31.401 17.892 17.892 0 0 0 9.939 3.014 17.905 17.905 0 0 0 17.888-17.888z"/><path d="M4.395 434.997a24.609 24.609 0 0 1 15.189-22.732 24.61 24.61 0 0 1 26.813 5.334A24.603 24.603 0 0 1 29 459.601a24.63 24.63 0 0 1-24.604-24.604zm46.888 0A22.285 22.285 0 1 0 29 457.281a22.31 22.31 0 0 0 22.284-22.284z"/><path d="M0 434.997a28.997 28.997 0 0 1 17.902-26.792A29 29 0 1 1 29 463.997a29.036 29.036 0 0 1-29-29zm55.68 0a26.682 26.682 0 0 0-16.47-24.649 26.678 26.678 0 0 0-36.377 19.444A26.68 26.68 0 0 0 29 461.677a26.713 26.713 0 0 0 26.68-26.68z"/></g><g clip-path="url(#S)" fill="#B89CF6"><path d="M152.02 434.998a7.016 7.016 0 0 1-11.98 4.96 7.015 7.015 0 0 1 1.062-10.797 7.022 7.022 0 0 1 3.897-1.184 7.03 7.03 0 0 1 7.021 7.021zm-11.719 0a4.699 4.699 0 1 0 4.698-4.698 4.706 4.706 0 0 0-4.698 4.698z"/><path d="M156.417 434.997a11.42 11.42 0 0 1-13.645 11.199 11.424 11.424 0 0 1-8.971-8.971 11.421 11.421 0 0 1 4.855-11.72 11.416 11.416 0 0 1 6.343-1.925 11.433 11.433 0 0 1 11.418 11.417zm-20.515 0a9.1 9.1 0 0 0 5.616 8.405 9.093 9.093 0 0 0 9.914-1.971 9.097 9.097 0 1 0-15.53-6.434z"/><path d="M160.811 434.998a15.814 15.814 0 1 1-15.813-15.813 15.83 15.83 0 0 1 15.813 15.813zm-29.305 0c0 2.668.791 5.277 2.273 7.496a13.497 13.497 0 0 0 13.851 5.737 13.495 13.495 0 0 0 9.834-18.397 13.496 13.496 0 0 0-12.466-8.329 13.508 13.508 0 0 0-13.492 13.493z"/><path d="M165.206 434.998a20.203 20.203 0 0 1-12.475 18.67 20.212 20.212 0 0 1-26.404-26.404 20.216 20.216 0 0 1 18.67-12.475 20.228 20.228 0 0 1 20.209 20.209zm-38.097 0a17.885 17.885 0 0 0 11.043 16.526 17.888 17.888 0 1 0 6.845-34.415 17.912 17.912 0 0 0-17.888 17.889z"/><path d="M169.603 434.998a24.6 24.6 0 0 1-15.189 22.731 24.598 24.598 0 0 1-26.813-5.333 24.61 24.61 0 0 1-5.334-26.814 24.612 24.612 0 0 1 9.062-11.042 24.61 24.61 0 0 1 13.67-4.146 24.63 24.63 0 0 1 24.604 24.604zm-46.888 0a22.279 22.279 0 0 0 13.756 20.588 22.287 22.287 0 0 0 30.384-16.241 22.288 22.288 0 0 0-9.476-22.876 22.287 22.287 0 0 0-12.38-3.755 22.306 22.306 0 0 0-22.284 22.284z"/><path d="M173.998 434.998a29.004 29.004 0 0 1-17.902 26.792 29 29 0 1 1-11.098-55.792 29.034 29.034 0 0 1 29 29zm-55.68 0a26.683 26.683 0 0 0 16.47 24.649 26.687 26.687 0 0 0 29.076-5.784 26.676 26.676 0 0 0 5.783-29.075 26.678 26.678 0 0 0-24.649-16.47 26.71 26.71 0 0 0-26.68 26.68z"/></g><g clip-path="url(#T)"><path d="M232.002 434.998A29.004 29.004 0 0 1 214.1 461.79a29 29 0 1 1-11.098-55.792h29v29z" fill="#C72462"/></g><g clip-path="url(#U)"><path d="M348 376.999c0-16.016-12.984-29-29-29s-29 12.984-29 29 12.984 29 29 29 29-12.984 29-29z" fill="#F2D3FF"/></g><g clip-path="url(#V)" fill="#B89CF6"><path d="M261.001 427.977a7.022 7.022 0 0 1 6.481 4.334 7.015 7.015 0 0 1-5.115 9.567 7.016 7.016 0 0 1-6.329-11.842 7.03 7.03 0 0 1 4.963-2.059zm0 11.719a4.693 4.693 0 0 0 4.34-2.9 4.696 4.696 0 0 0-1.018-5.12 4.696 4.696 0 0 0-7.229.712 4.7 4.7 0 0 0-.791 2.61 4.706 4.706 0 0 0 4.698 4.698z"/><path d="M261.002 423.58a11.42 11.42 0 0 1 11.199 13.645 11.42 11.42 0 0 1-15.567 8.321 11.413 11.413 0 0 1-3.701-18.618 11.433 11.433 0 0 1 8.069-3.348zm0 20.515a9.094 9.094 0 0 0 8.405-5.615 9.097 9.097 0 1 0-17.502-3.482 9.107 9.107 0 0 0 9.097 9.097z"/><path d="M261.002 419.185a15.809 15.809 0 0 1 14.609 9.761 15.813 15.813 0 1 1-30.422 6.052 15.832 15.832 0 0 1 15.813-15.813zm0 29.305a13.49 13.49 0 0 0 13.233-16.125 13.487 13.487 0 0 0-10.601-10.601 13.497 13.497 0 0 0-13.851 5.737 13.5 13.5 0 0 0-2.274 7.497 13.511 13.511 0 0 0 13.493 13.492z"/><path d="M261.003 414.789a20.216 20.216 0 0 1 18.67 12.475 20.212 20.212 0 0 1-26.404 26.404 20.213 20.213 0 0 1-12.475-18.67 20.228 20.228 0 0 1 20.209-20.209zm0 38.097a17.885 17.885 0 0 0 16.526-11.043 17.888 17.888 0 1 0-34.415-6.845 17.912 17.912 0 0 0 17.889 17.888z"/><path d="M261.001 410.394a24.61 24.61 0 0 1 13.67 4.146 24.61 24.61 0 0 1 3.728 37.856 24.6 24.6 0 0 1-26.813 5.333 24.6 24.6 0 0 1-15.189-22.731 24.631 24.631 0 0 1 24.604-24.604zm0 46.888a22.283 22.283 0 0 0 4.348-44.14 22.282 22.282 0 0 0-26.632 21.856 22.31 22.31 0 0 0 22.284 22.284z"/><path d="M261.002 405.998a28.994 28.994 0 0 1 26.792 17.902 28.998 28.998 0 0 1-37.89 37.89 29.004 29.004 0 0 1-17.902-26.792 29.034 29.034 0 0 1 29-29zm0 55.68a26.68 26.68 0 1 0-26.68-26.68 26.713 26.713 0 0 0 26.68 26.68z"/></g><g clip-path="url(#W)" fill="#B89CF6"><path d="M377.001 384.019a7.022 7.022 0 0 1-6.481-4.334 7.015 7.015 0 0 1 5.114-9.567 7.018 7.018 0 0 1 8.388 6.88 7.029 7.029 0 0 1-7.021 7.021zm0-11.719a4.701 4.701 0 0 0-4.34 2.9 4.695 4.695 0 0 0 6.138 6.138 4.694 4.694 0 0 0 1.522-7.66 4.708 4.708 0 0 0-3.32-1.378z"/><path d="M377 388.416a11.42 11.42 0 0 1-11.199-13.645 11.424 11.424 0 0 1 8.971-8.971 11.421 11.421 0 0 1 11.72 4.855 11.416 11.416 0 0 1 1.925 6.343A11.433 11.433 0 0 1 377 388.416zm0-20.515a9.094 9.094 0 0 0-8.405 5.616 9.093 9.093 0 0 0 1.971 9.914 9.097 9.097 0 1 0 6.434-15.53z"/><path d="M377 392.811a15.809 15.809 0 0 1-14.609-9.761 15.813 15.813 0 1 1 30.422-6.051A15.831 15.831 0 0 1 377 392.811zm0-29.305a13.488 13.488 0 0 0-12.465 8.329 13.487 13.487 0 0 0 9.833 18.397 13.497 13.497 0 0 0 13.851-5.737 13.499 13.499 0 0 0 2.274-7.496A13.512 13.512 0 0 0 377 363.506z"/><path d="M376.999 397.207a20.206 20.206 0 0 1-18.67-12.475 20.212 20.212 0 0 1 26.404-26.404 20.206 20.206 0 0 1 12.475 18.67 20.228 20.228 0 0 1-20.209 20.209zm0-38.097a17.885 17.885 0 0 0-16.526 11.043 17.888 17.888 0 1 0 34.415 6.845 17.912 17.912 0 0 0-17.889-17.888z"/><path d="M377.001 401.602a24.608 24.608 0 0 1-22.732-15.188 24.61 24.61 0 0 1 5.334-26.814 24.6 24.6 0 0 1 26.813-5.333 24.6 24.6 0 0 1 15.189 22.731 24.635 24.635 0 0 1-24.604 24.604zm0-46.888a22.283 22.283 0 0 0-21.856 26.632 22.293 22.293 0 0 0 6.098 11.41 22.293 22.293 0 0 0 24.285 4.83 22.286 22.286 0 0 0 13.757-20.588 22.314 22.314 0 0 0-6.534-15.75 22.314 22.314 0 0 0-15.75-6.534z"/><path d="M377 405.999a28.998 28.998 0 0 1-26.792-17.903 28.998 28.998 0 0 1 37.89-37.89A29.004 29.004 0 0 1 406 376.999a29.034 29.034 0 0 1-29 29zm0-55.68a26.679 26.679 0 0 0-5.205 52.847 26.687 26.687 0 0 0 27.389-11.345 26.683 26.683 0 0 0 4.496-14.822 26.713 26.713 0 0 0-26.68-26.68z"/></g><g clip-path="url(#X)" fill="#B89CF6"><path d="M427.976 376.998a7.01 7.01 0 0 1 1.184-3.898 7.018 7.018 0 1 1 5.837 10.919 7.028 7.028 0 0 1-7.021-7.021zm11.719 0a4.701 4.701 0 0 0-5.615-4.608 4.704 4.704 0 0 0-3.691 3.691 4.7 4.7 0 0 0 4.608 5.615 4.706 4.706 0 0 0 4.698-4.698z"/><path d="M423.579 376.999a11.42 11.42 0 0 1 13.645-11.199 11.42 11.42 0 0 1 8.321 15.567 11.416 11.416 0 0 1-10.548 7.049 11.433 11.433 0 0 1-11.418-11.417zm20.515 0a9.094 9.094 0 0 0-5.615-8.405 9.097 9.097 0 1 0-3.482 17.502 9.107 9.107 0 0 0 9.097-9.097z"/><path d="M419.185 376.999a15.814 15.814 0 0 1 26.994-11.182 15.81 15.81 0 0 1-2.396 24.329 15.809 15.809 0 0 1-8.785 2.665 15.83 15.83 0 0 1-15.813-15.812zm29.306 0a13.494 13.494 0 0 0-26.726-2.633 13.488 13.488 0 0 0 22.769 12.169 13.511 13.511 0 0 0 3.957-9.536z"/><path d="M414.79 376.998a20.214 20.214 0 0 1 12.475-18.67 20.212 20.212 0 0 1 26.404 26.404 20.213 20.213 0 0 1-18.67 12.475 20.228 20.228 0 0 1-20.209-20.209zm38.097 0a17.885 17.885 0 0 0-11.043-16.526 17.888 17.888 0 1 0-6.845 34.415 17.912 17.912 0 0 0 17.888-17.889z"/><path d="M410.393 376.998a24.6 24.6 0 0 1 15.189-22.731 24.6 24.6 0 0 1 26.813 5.333 24.61 24.61 0 0 1 5.334 26.814 24.608 24.608 0 0 1-22.732 15.188 24.63 24.63 0 0 1-24.604-24.604zm46.889 0a22.28 22.28 0 0 0-13.757-20.588 22.287 22.287 0 0 0-30.384 16.241 22.287 22.287 0 0 0 21.856 26.631 22.31 22.31 0 0 0 22.285-22.284z"/><path d="M405.998 376.999a29.005 29.005 0 0 1 17.902-26.793 29 29 0 1 1 11.098 55.793 29.034 29.034 0 0 1-29-29zm55.68 0a26.684 26.684 0 0 0-16.47-24.65 26.687 26.687 0 0 0-29.076 5.784 26.68 26.68 0 0 0 18.866 45.546 26.714 26.714 0 0 0 26.68-26.68z"/></g><g clip-path="url(#Y)" fill="#B89CF6"><path d="M377.001 442.017a7.016 7.016 0 0 1-4.959-11.98 7.02 7.02 0 0 1 7.647-1.522 7.016 7.016 0 0 1 2.275 11.444 7.03 7.03 0 0 1-4.963 2.058zm0-11.718a4.7 4.7 0 0 0-4.34 2.9 4.698 4.698 0 1 0 4.34-2.9z"/><path d="M377 446.414a11.418 11.418 0 1 1 11.417-11.417A11.433 11.433 0 0 1 377 446.414zm0-20.514a9.093 9.093 0 0 0-8.405 5.615 9.094 9.094 0 0 0 1.971 9.914 9.098 9.098 0 0 0 15.531-6.432A9.11 9.11 0 0 0 377 425.9z"/><path d="M377 450.81a15.817 15.817 0 0 1-14.609-9.762 15.811 15.811 0 0 1 20.66-20.66 15.817 15.817 0 0 1 9.762 14.609A15.834 15.834 0 0 1 377 450.81zm0-29.305a13.49 13.49 0 0 0-13.233 16.124 13.486 13.486 0 0 0 10.601 10.601 13.489 13.489 0 0 0 13.851-5.737 13.496 13.496 0 0 0 2.274-7.496A13.51 13.51 0 0 0 377 421.505z"/><path d="M376.999 455.205a20.213 20.213 0 0 1-18.67-12.475 20.218 20.218 0 0 1-1.15-11.676 20.21 20.21 0 0 1 40.029 3.943 20.23 20.23 0 0 1-20.209 20.208zm0-38.096a17.892 17.892 0 0 0-16.526 11.042 17.892 17.892 0 0 0 3.877 19.495 17.896 17.896 0 0 0 19.495 3.878 17.888 17.888 0 0 0 11.043-16.527 17.908 17.908 0 0 0-17.889-17.888z"/><path d="M377.001 459.601a24.6 24.6 0 0 1-22.732-15.189 24.607 24.607 0 0 1 17.932-33.547 24.608 24.608 0 0 1 25.257 10.462 24.606 24.606 0 0 1 4.147 13.67 24.631 24.631 0 0 1-24.604 24.604zm0-46.888a22.285 22.285 0 1 0 22.284 22.284 22.312 22.312 0 0 0-22.284-22.284z"/><path d="M377 463.997a28.995 28.995 0 0 1-26.792-17.902 29 29 0 0 1 21.134-39.541A29 29 0 0 1 406 434.997a29.034 29.034 0 0 1-29 29zm0-55.68a26.684 26.684 0 0 0-18.866 45.546 26.683 26.683 0 0 0 41.05-4.043 26.687 26.687 0 0 0 4.496-14.823 26.715 26.715 0 0 0-7.823-18.857A26.715 26.715 0 0 0 377 408.317z"/></g><g clip-path="url(#Z)"><path d="M434.998 405.998a28.997 28.997 0 0 1 28.443 34.657 29 29 0 0 1-57.443-5.657v-29h29z" fill="#C72462"/></g><g clip-path="url(#aa)"><path d="M580.002 376.999c0-16.016-12.984-29-29-29s-29 12.984-29 29 12.984 29 29 29 29-12.984 29-29z" fill="#F2D3FF"/></g><g clip-path="url(#ab)"><path d="M551.002 405.998a28.994 28.994 0 0 1 26.792 17.902 28.998 28.998 0 0 1-37.89 37.89 29.004 29.004 0 0 1-17.902-26.792v-29h29z" fill="#C72462"/></g><g clip-path="url(#ac)"><path d="M58 493.003a28.997 28.997 0 0 1-17.902 26.792A29 29 0 1 1 29 464.003h29v29z" fill="#C72462"/></g><g clip-path="url(#ad)"><path d="M115.998 493.003c0-16.016-12.984-29-29-29s-29 12.984-29 29c0 16.017 12.984 29 29 29s29-12.983 29-29z" fill="#F2D3FF"/></g><g clip-path="url(#ae)" fill="#B89CF6"><path d="M29.001 558.022a7.024 7.024 0 0 1-6.481-4.334 7.017 7.017 0 1 1 13.502-2.687 7.028 7.028 0 0 1-7.02 7.021zm0-11.719a4.698 4.698 0 1 0 4.698 4.698 4.708 4.708 0 0 0-4.698-4.698z"/><path d="M29 562.419a11.423 11.423 0 0 1-10.549-7.048 11.419 11.419 0 0 1 8.32-15.568 11.423 11.423 0 0 1 11.721 4.855 11.418 11.418 0 0 1 1.925 6.343A11.432 11.432 0 0 1 29 562.419zm0-20.515a9.095 9.095 0 0 0-8.405 5.616A9.096 9.096 0 1 0 29 541.904z"/><path d="M29 566.814a15.808 15.808 0 0 1-14.609-9.761 15.813 15.813 0 1 1 30.422-6.051A15.828 15.828 0 0 1 29 566.814zm0-29.305a13.49 13.49 0 0 0-12.465 8.329 13.492 13.492 0 1 0 25.958 5.164A13.51 13.51 0 0 0 29 537.509z"/><path d="M29 571.21a20.213 20.213 0 0 1-18.67-12.475 20.21 20.21 0 1 1 38.878-7.734 20.23 20.23 0 0 1-20.209 20.209zm0-38.097a17.886 17.886 0 0 0-16.527 11.043 17.887 17.887 0 0 0 23.372 23.372 17.893 17.893 0 0 0 11.043-16.527 17.91 17.91 0 0 0-17.889-17.888z"/><path d="M29 575.605a24.608 24.608 0 0 1-22.73-15.188 24.605 24.605 0 1 1 47.335-9.416A24.633 24.633 0 0 1 29 575.605zm0-46.888a22.282 22.282 0 0 0-20.587 13.756 22.287 22.287 0 0 0 16.24 30.384 22.28 22.28 0 0 0 22.876-9.475 22.286 22.286 0 0 0 3.756-12.381A22.31 22.31 0 0 0 29 528.717z"/><path d="M29 580.001a28.996 28.996 0 0 1-26.792-17.902A28.999 28.999 0 1 1 58 551.001a29.034 29.034 0 0 1-29 29zm0-55.68a26.678 26.678 0 0 0-24.65 16.47 26.681 26.681 0 1 0 51.33 10.21A26.71 26.71 0 0 0 29 524.321z"/></g><g clip-path="url(#af)"><path d="M115.998 551.002c0-16.016-12.984-29-29-29s-29 12.984-29 29 12.984 29 29 29 29-12.984 29-29z" fill="#F2D3FF"/></g><g clip-path="url(#ag)"><path d="M232.002 493.003c0-16.016-12.984-29-29-29s-29 12.984-29 29c0 16.017 12.984 29 29 29s29-12.983 29-29z" fill="#F2D3FF"/></g><g clip-path="url(#ah)"><path d="M290.002 493.003a29.001 29.001 0 0 1-49.506 20.506 29 29 0 0 1 20.506-49.506h29v29z" fill="#C72462"/></g><g clip-path="url(#ai)" fill="#B89CF6"><path d="M319.001 500.023a7.016 7.016 0 0 1-4.959-11.98 7.02 7.02 0 0 1 7.647-1.522 7.016 7.016 0 0 1 2.275 11.444 7.03 7.03 0 0 1-4.963 2.058zm0-11.719a4.701 4.701 0 0 0-4.34 2.901 4.695 4.695 0 0 0 6.138 6.138 4.702 4.702 0 0 0 2.9-4.341 4.709 4.709 0 0 0-4.698-4.698z"/><path d="M319 504.42a11.412 11.412 0 0 1-10.549-7.048 11.421 11.421 0 0 1 2.475-12.442 11.412 11.412 0 0 1 12.442-2.476 11.415 11.415 0 0 1 3.701 18.618A11.429 11.429 0 0 1 319 504.42zm0-20.515a9.102 9.102 0 0 0-8.405 5.616 9.093 9.093 0 0 0 1.971 9.914 9.098 9.098 0 0 0 15.531-6.432 9.11 9.11 0 0 0-9.097-9.098z"/><path d="M319 508.816a15.817 15.817 0 0 1-14.609-9.762 15.812 15.812 0 1 1 30.422-6.051A15.835 15.835 0 0 1 319 508.816zm0-29.306a13.496 13.496 0 0 0-12.465 8.33 13.48 13.48 0 0 0-.768 7.795 13.486 13.486 0 0 0 10.601 10.601 13.49 13.49 0 0 0 16.125-13.233A13.51 13.51 0 0 0 319 479.51z"/><path d="M318.999 513.211a20.206 20.206 0 0 1-18.67-12.475 20.219 20.219 0 0 1-1.15-11.676 20.203 20.203 0 0 1 27.554-14.727 20.205 20.205 0 0 1 12.475 18.67 20.23 20.23 0 0 1-20.209 20.208zm0-38.097a17.893 17.893 0 0 0-16.526 11.043 17.892 17.892 0 0 0 3.877 19.495 17.887 17.887 0 0 0 19.495 3.877 17.885 17.885 0 0 0 11.043-16.526 17.908 17.908 0 0 0-17.889-17.889z"/><path d="M319.001 517.607a24.6 24.6 0 0 1-22.732-15.189 24.608 24.608 0 0 1 5.334-26.813 24.61 24.61 0 0 1 26.813-5.334 24.606 24.606 0 0 1 15.189 22.732 24.631 24.631 0 0 1-24.604 24.604zm0-46.889a22.283 22.283 0 0 0-21.856 26.632 22.29 22.29 0 0 0 17.508 17.509 22.282 22.282 0 0 0 26.632-21.856 22.312 22.312 0 0 0-22.284-22.285z"/><path d="M319 522.003a28.995 28.995 0 0 1-26.792-17.902A29 29 0 1 1 348 493.003a29.03 29.03 0 0 1-8.504 20.496A29.03 29.03 0 0 1 319 522.003zm0-55.68a26.684 26.684 0 0 0-18.866 45.546 26.683 26.683 0 0 0 41.05-4.043 26.687 26.687 0 0 0 4.496-14.823 26.713 26.713 0 0 0-26.68-26.68z"/></g><g clip-path="url(#aj)"><path d="M261.002 580.001c16.016 0 29-12.983 29-29 0-16.016-12.984-29-29-29s-29 12.984-29 29c0 16.017 12.984 29 29 29z" fill="#F2D3FF"/></g><g clip-path="url(#ak)"><path d="M319 522.002c-16.016 0-29 12.984-29 29s12.984 29 29 29 29-12.984 29-29-12.984-29-29-29z" fill="#F2D3FF"/></g><g clip-path="url(#al)"><path d="M347.998 493.003A29.005 29.005 0 0 1 365.9 466.21a29 29 0 1 1 11.098 55.793h-29v-29z" fill="#C72462"/></g><g clip-path="url(#am)"><path d="M463.996 493.003c0-16.016-12.984-29-29-29s-29 12.984-29 29c0 16.017 12.984 29 29 29s29-12.983 29-29z" fill="#F2D3FF"/></g><g clip-path="url(#an)"><path d="M348.07 522.074s27.818-1.914 43.794 14.062c15.977 15.977 14.063 43.795 14.063 43.795s-27.818 1.914-43.795-14.063c-15.976-15.976-14.062-43.794-14.062-43.794z" fill="#FF97BA"/></g><g clip-path="url(#ao)"><path d="M522.002 493.003c0 16.016 12.984 29 29 29s29-12.984 29-29-12.984-29-29-29-29 12.984-29 29z" fill="#F2D3FF"/></g><g clip-path="url(#ap)"><path d="M464.075 522.074s27.818-1.914 43.795 14.062c15.977 15.977 14.063 43.795 14.063 43.795s-27.818 1.914-43.795-14.063c-15.977-15.976-14.063-43.794-14.063-43.794z" fill="#FF97BA"/></g></g><defs><clipPath id="I"><path fill="#fff" transform="rotate(90 .001 232.002)" d="M0 0h58v58H0z"/></clipPath><clipPath id="a"><path fill="#fff" d="M0 0h580v580H0z"/></clipPath><clipPath id="c"><path fill="#fff" transform="rotate(90 0 58)" d="M0 0h58v58H0z"/></clipPath><clipPath id="d"><path fill="#fff" transform="rotate(90 29 87)" d="M0 0h58v58H0z"/></clipPath><clipPath id="e"><path fill="#fff" transform="rotate(-90 87 -28.999)" d="M0 0h58v58H0z"/></clipPath><clipPath id="f"><path fill="#fff" transform="rotate(90 57.999 115.997)" d="M0 0h58v58H0z"/></clipPath><clipPath id="g"><path fill="#fff" transform="translate(174.002 57.998)" d="M0 0h58v58H0z"/></clipPath><clipPath id="h"><path fill="#fff" transform="rotate(-90 145.001 -87)" d="M0 0h58v58H0z"/></clipPath><clipPath id="i"><path fill="#fff" transform="rotate(180 174.001 29)" d="M0 0h58v58H0z"/></clipPath><clipPath id="j"><path fill="#fff" transform="translate(232.002 57.998)" d="M0 0h58v58H0z"/></clipPath><clipPath id="k"><path fill="#fff" transform="translate(290 57.998)" d="M0 0h58v58H0z"/></clipPath><clipPath id="l"><path fill="#fff" transform="translate(405.996)" d="M0 0h58v58H0z"/></clipPath><clipPath id="m"><path fill="#fff" transform="translate(348 57.998)" d="M0 0h58v58H0z"/></clipPath><clipPath id="n"><path fill="#fff" transform="rotate(180 290.001 29)" d="M0 0h58v58H0z"/></clipPath><clipPath id="o"><path fill="#fff" transform="rotate(180 261.002 57.999)" d="M0 0h58v58H0z"/></clipPath><clipPath id="p"><path fill="#fff" transform="rotate(180 290.001 57.999)" d="M0 0h58v58H0z"/></clipPath><clipPath id="q"><path fill="#fff" transform="rotate(180 58 86.999)" d="M0 0h58v58H0z"/></clipPath><clipPath id="r"><path fill="#fff" transform="rotate(90 -58.001 116.001)" d="M0 0h58v58H0z"/></clipPath><clipPath id="s"><path fill="#fff" transform="rotate(90 29 144.996)" d="M0 0h58v58H0z"/></clipPath><clipPath id="t"><path fill="#fff" transform="rotate(180 116.002 86.999)" d="M0 0h58v58H0z"/></clipPath><clipPath id="u"><path fill="#fff" transform="rotate(90 -.003 174)" d="M0 0h58v58H0z"/></clipPath><clipPath id="v"><path fill="#fff" transform="rotate(90 29 203.003)" d="M0 0h58v58H0z"/></clipPath><clipPath id="w"><path fill="#fff" transform="translate(232.002 174.003)" d="M0 0h58v58H0z"/></clipPath><clipPath id="x"><path fill="#fff" transform="translate(348 115.997)" d="M0 0h58v58H0z"/></clipPath><clipPath id="y"><path fill="#fff" transform="rotate(180 231.999 86.999)" d="M0 0h58v58H0z"/></clipPath><clipPath id="z"><path fill="#fff" transform="rotate(90 115.998 290)" d="M0 0h58v58H0z"/></clipPath><clipPath id="A"><path fill="#fff" transform="rotate(90 203.004 319)" d="M0 0h58v58H0z"/></clipPath><clipPath id="B"><path fill="#fff" transform="rotate(-90 348 -174.002)" d="M0 0h58v58H0z"/></clipPath><clipPath id="C"><path fill="#fff" transform="rotate(180 261.002 116.002)" d="M0 0h58v58H0z"/></clipPath><clipPath id="D"><path fill="#fff" transform="translate(0 232.001)" d="M0 0h58v58H0z"/></clipPath><clipPath id="E"><path fill="#fff" transform="rotate(-90 174 116.002)" d="M0 0h58v58H0z"/></clipPath><clipPath id="F"><path fill="#fff" transform="translate(0 290)" d="M0 0h58v58H0z"/></clipPath><clipPath id="G"><path fill="#fff" transform="translate(57.998 290)" d="M0 0h58v58H0z"/></clipPath><clipPath id="H"><path fill="#fff" transform="rotate(180 86.998 145)" d="M0 0h58v58H0z"/></clipPath><clipPath id="b"><path fill="#fff" transform="translate(57.998)" d="M0 0h58v58H0z"/></clipPath><clipPath id="J"><path fill="#fff" transform="translate(290 232.001)" d="M0 0h58v58H0z"/></clipPath><clipPath id="K"><path fill="#fff" transform="translate(290 290)" d="M0 0h58v58H0z"/></clipPath><clipPath id="L"><path fill="#fff" transform="rotate(180 231.999 145.001)" d="M0 0h58v58H0z"/></clipPath><clipPath id="M"><path fill="#fff" transform="rotate(180 231.999 174)" d="M0 0h58v58H0z"/></clipPath><clipPath id="N"><path fill="#fff" transform="translate(464.004 232.001)" d="M0 0h58v58H0z"/></clipPath><clipPath id="O"><path fill="#fff" transform="rotate(180 290.001 145.001)" d="M0 0h58v58H0z"/></clipPath><clipPath id="P"><path fill="#fff" transform="rotate(-90 203 203)" d="M0 0h58v58H0z"/></clipPath><clipPath id="Q"><path fill="#fff" transform="rotate(90 -116 232)" d="M0 0h58v58H0z"/></clipPath><clipPath id="R"><path fill="#fff" transform="rotate(90 -173.999 231.999)" d="M0 0h58v58H0z"/></clipPath><clipPath id="S"><path fill="#fff" transform="rotate(-90 289.998 174)" d="M0 0h58v58H0z"/></clipPath><clipPath id="T"><path fill="#fff" transform="rotate(-90 319 144.998)" d="M0 0h58v58H0z"/></clipPath><clipPath id="U"><path fill="#fff" transform="rotate(-90 348 58)" d="M0 0h58v58H0z"/></clipPath><clipPath id="V"><path fill="#fff" transform="rotate(180 145.001 231.999)" d="M0 0h58v58H0z"/></clipPath><clipPath id="W"><path fill="#fff" transform="translate(348 347.999)" d="M0 0h58v58H0z"/></clipPath><clipPath id="X"><path fill="#fff" transform="rotate(90 58 405.999)" d="M0 0h58v58H0z"/></clipPath><clipPath id="Y"><path fill="#fff" transform="translate(348 405.997)" d="M0 0h58v58H0z"/></clipPath><clipPath id="Z"><path fill="#fff" transform="rotate(180 231.999 231.999)" d="M0 0h58v58H0z"/></clipPath><clipPath id="aa"><path fill="#fff" transform="rotate(-90 464 -58.001)" d="M0 0h58v58H0z"/></clipPath><clipPath id="ab"><path fill="#fff" transform="rotate(180 290.001 231.999)" d="M0 0h58v58H0z"/></clipPath><clipPath id="ac"><path fill="#fff" transform="matrix(0 -1 1 0 0 522.003)" d="M0 0h58v58H0z"/></clipPath><clipPath id="ad"><path fill="#fff" transform="rotate(-90 290 232.003)" d="M0 0h58v58H0z"/></clipPath><clipPath id="ae"><path fill="#fff" transform="translate(0 522.001)" d="M0 0h58v58H0z"/></clipPath><clipPath id="af"><path fill="#fff" transform="rotate(-90 319 261.002)" d="M0 0h58v58H0z"/></clipPath><clipPath id="ag"><path fill="#fff" transform="rotate(-90 348.003 174)" d="M0 0h58v58H0z"/></clipPath><clipPath id="ah"><path fill="#fff" transform="rotate(-90 377.003 145)" d="M0 0h58v58H0z"/></clipPath><clipPath id="ai"><path fill="#fff" transform="translate(290 464.003)" d="M0 0h58v58H0z"/></clipPath><clipPath id="aj"><path fill="#fff" transform="translate(232.002 522.001)" d="M0 0h58v58H0z"/></clipPath><clipPath id="ak"><path fill="#fff" transform="rotate(180 174 290.001)" d="M0 0h58v58H0z"/></clipPath><clipPath id="al"><path fill="#fff" transform="rotate(90 -29.002 435)" d="M0 0h58v58H0z"/></clipPath><clipPath id="am"><path fill="#fff" transform="rotate(-90 464 58.004)" d="M0 0h58v58H0z"/></clipPath><clipPath id="an"><path fill="#fff" transform="rotate(-90 464 116.001)" d="M0 0h58v58H0z"/></clipPath><clipPath id="ao"><path fill="#fff" transform="rotate(90 58 522.002)" d="M0 0h58v58H0z"/></clipPath><clipPath id="ap"><path fill="#fff" transform="rotate(-90 522.003 57.998)" d="M0 0h58v58H0z"/></clipPath></defs></svg>